<svg xmlns="http://www.w3.org/2000/svg" width="1200" height="720" viewBox="0 0 1200 720">
  <defs>
    <linearGradient id="bg" x1="0" y1="0" x2="1" y2="1">
      <stop offset="0%" stop-color="#10242a"/>
      <stop offset="55%" stop-color="#2f4b54"/>
      <stop offset="100%" stop-color="#7f5336"/>
    </linearGradient>
    <linearGradient id="brass" x1="0" y1="0" x2="0" y2="1">
      <stop offset="0%" stop-color="#f4d07f"/>
      <stop offset="100%" stop-color="#bb7c2b"/>
    </linearGradient>
    <linearGradient id="bassBody" x1="0" y1="0" x2="1" y2="1">
      <stop offset="0%" stop-color="#9f4b25"/>
      <stop offset="100%" stop-color="#5b2317"/>
    </linearGradient>
    <linearGradient id="guitarBody" x1="0" y1="0" x2="1" y2="1">
      <stop offset="0%" stop-color="#d64b44"/>
      <stop offset="100%" stop-color="#7a2020"/>
    </linearGradient>
    <filter id="shadow" x="-20%" y="-20%" width="140%" height="140%">
      <feDropShadow dx="0" dy="10" stdDeviation="12" flood-color="#0b1518" flood-opacity="0.45"/>
    </filter>
  </defs>

  <rect width="1200" height="720" fill="url(#bg)"/>
  <circle cx="1080" cy="120" r="90" fill="#ffffff" opacity="0.08"/>
  <circle cx="170" cy="90" r="55" fill="#ffffff" opacity="0.07"/>
  <ellipse cx="600" cy="610" rx="500" ry="78" fill="#0e171b" opacity="0.55"/>

  <text x="70" y="84" fill="#f7efe2" font-size="46" font-family="Georgia, serif">Snowcap Swing</text>
  <text x="72" y="120" fill="#f2cf86" font-size="20" font-family="'Trebuchet MS', sans-serif">Vintage jazz quartet with brass warmth, big crooner energy, and audio-reactive strings.</text>

  <g filter="url(#shadow)">
    <rect x="62" y="530" width="250" height="130" rx="22" fill="#13252a" opacity="0.82"/>
    <text x="84" y="565" fill="#f7efe2" font-size="22" font-family="'Trebuchet MS', sans-serif">Bassist</text>
    <text x="84" y="592" fill="#d6e7eb" font-size="17" font-family="'Trebuchet MS', sans-serif">9 ft snowman, giant upright bass</text>
    <text x="84" y="617" fill="#d6e7eb" font-size="17" font-family="'Trebuchet MS', sans-serif">4 reactive strings, slap hand</text>
    <text x="84" y="642" fill="#d6e7eb" font-size="17" font-family="'Trebuchet MS', sans-serif">subtle BGV face on backing stems</text>

    <rect x="920" y="530" width="220" height="130" rx="22" fill="#13252a" opacity="0.82"/>
    <text x="944" y="565" fill="#f7efe2" font-size="22" font-family="'Trebuchet MS', sans-serif">Drummer</text>
    <text x="944" y="592" fill="#d6e7eb" font-size="17" font-family="'Trebuchet MS', sans-serif">crash arc plus shimmer decay</text>
    <text x="944" y="617" fill="#d6e7eb" font-size="17" font-family="'Trebuchet MS', sans-serif">kick circles pulse center out</text>
    <text x="944" y="642" fill="#d6e7eb" font-size="17" font-family="'Trebuchet MS', sans-serif">snare flash and hi-hat merge hit</text>
  </g>

  <g transform="translate(150 170)">
    <ellipse cx="115" cy="300" rx="75" ry="68" fill="#f8fdff"/>
    <circle cx="115" cy="205" r="58" fill="#f8fdff"/>
    <circle cx="115" cy="120" r="46" fill="#f8fdff"/>
    <rect x="82" y="74" width="66" height="16" fill="#261a16"/>
    <rect x="92" y="34" width="46" height="44" rx="4" fill="#261a16"/>
    <circle cx="100" cy="114" r="5" fill="#1f2528"/>
    <circle cx="130" cy="114" r="5" fill="#1f2528"/>
    <path d="M95 132 Q115 147 135 132" fill="none" stroke="#aa4a3f" stroke-width="6" stroke-linecap="round"/>
    <path d="M54 206 Q16 218 8 255" fill="none" stroke="#81553f" stroke-width="10" stroke-linecap="round"/>
    <path d="M171 214 Q220 194 235 145" fill="none" stroke="#81553f" stroke-width="10" stroke-linecap="round"/>
    <circle cx="232" cy="145" r="10" fill="#cfa580"/>
    <path d="M82 330 Q112 350 146 334" fill="none" stroke="#81553f" stroke-width="12" stroke-linecap="round"/>
    <path d="M115 362 L115 430" stroke="#81553f" stroke-width="14" stroke-linecap="round"/>
    <path d="M95 430 L82 500" stroke="#81553f" stroke-width="12" stroke-linecap="round"/>
    <path d="M136 430 L150 500" stroke="#81553f" stroke-width="12" stroke-linecap="round"/>

    <path d="M205 92 L205 420" stroke="#4a291d" stroke-width="22" stroke-linecap="round"/>
    <ellipse cx="208" cy="277" rx="58" ry="112" fill="url(#bassBody)" stroke="#e1b66b" stroke-width="4"/>
    <ellipse cx="208" cy="230" rx="36" ry="46" fill="#8f4328" opacity="0.9"/>
    <ellipse cx="208" cy="330" rx="42" ry="58" fill="#7a3520" opacity="0.92"/>
    <circle cx="205" cy="78" r="13" fill="#d6a85e"/>
    <line x1="188" y1="104" x2="188" y2="402" stroke="#87ddff" stroke-width="2"/>
    <line x1="199" y1="104" x2="199" y2="402" stroke="#f9f2b1" stroke-width="2"/>
    <line x1="211" y1="104" x2="211" y2="402" stroke="#ff9d7d" stroke-width="2"/>
    <line x1="223" y1="104" x2="223" y2="402" stroke="#d7ff90" stroke-width="2"/>
    <circle cx="182" cy="223" r="10" fill="#cfa580"/>
    <circle cx="212" cy="169" r="10" fill="#cfa580"/>
    <text x="10" y="535" fill="#f6e7c7" font-size="18" font-family="'Trebuchet MS', sans-serif">4 strings mapped low to high</text>
  </g>

  <g transform="translate(468 150)">
    <ellipse cx="130" cy="324" rx="82" ry="74" fill="#fbfeff"/>
    <circle cx="130" cy="220" r="64" fill="#fbfeff"/>
    <circle cx="130" cy="126" r="50" fill="#fbfeff"/>
    <rect x="93" y="84" width="74" height="18" fill="#37241f"/>
    <rect x="105" y="38" width="50" height="52" rx="6" fill="#37241f"/>
    <circle cx="112" cy="121" r="6" fill="#202729"/>
    <circle cx="148" cy="121" r="6" fill="#202729"/>
    <path d="M98 144 Q130 176 162 144" fill="none" stroke="#cb4b3d" stroke-width="10" stroke-linecap="round"/>
    <path d="M86 166 Q130 200 174 166" fill="none" stroke="#ffffff" stroke-width="4" opacity="0.75" stroke-linecap="round"/>
    <path d="M66 236 Q35 214 14 180" fill="none" stroke="#8f6556" stroke-width="12" stroke-linecap="round"/>
    <circle cx="12" cy="178" r="10" fill="#d3a889"/>
    <path d="M190 240 Q230 222 252 246" fill="none" stroke="#8f6556" stroke-width="12" stroke-linecap="round"/>
    <circle cx="252" cy="246" r="10" fill="#d3a889"/>
    <path d="M96 364 Q130 382 164 364" fill="none" stroke="#8f6556" stroke-width="12" stroke-linecap="round"/>
    <path d="M130 396 L130 470" stroke="#8f6556" stroke-width="14" stroke-linecap="round"/>
    <path d="M110 470 L95 545" stroke="#8f6556" stroke-width="12" stroke-linecap="round"/>
    <path d="M150 470 L167 545" stroke="#8f6556" stroke-width="12" stroke-linecap="round"/>
    <line x1="259" y1="226" x2="259" y2="540" stroke="#d8c9b2" stroke-width="5"/>
    <circle cx="259" cy="223" r="16" fill="url(#brass)"/>
    <text x="18" y="582" fill="#f6e7c7" font-size="18" font-family="'Trebuchet MS', sans-serif">Lead singer: exaggerated face and wide mouth morphs</text>
  </g>

  <g transform="translate(792 176)">
    <ellipse cx="110" cy="294" rx="76" ry="70" fill="#f9fdff"/>
    <circle cx="110" cy="200" r="58" fill="#f9fdff"/>
    <circle cx="110" cy="118" r="46" fill="#f9fdff"/>
    <rect x="79" y="72" width="62" height="16" fill="#271b17"/>
    <rect x="88" y="34" width="44" height="42" rx="4" fill="#271b17"/>
    <circle cx="95" cy="114" r="5" fill="#1f2528"/>
    <circle cx="123" cy="114" r="5" fill="#1f2528"/>
    <path d="M92 131 Q110 145 128 131" fill="none" stroke="#ae5142" stroke-width="6" stroke-linecap="round" opacity="0.6"/>
    <path d="M58 214 Q24 222 2 250" fill="none" stroke="#835748" stroke-width="10" stroke-linecap="round"/>
    <path d="M160 220 Q214 210 266 173" fill="none" stroke="#835748" stroke-width="10" stroke-linecap="round"/>
    <circle cx="264" cy="173" r="10" fill="#d1a787"/>
    <path d="M81 324 Q110 343 143 325" fill="none" stroke="#835748" stroke-width="12" stroke-linecap="round"/>
    <path d="M110 356 L110 428" stroke="#835748" stroke-width="14" stroke-linecap="round"/>
    <path d="M94 428 L80 498" stroke="#835748" stroke-width="12" stroke-linecap="round"/>
    <path d="M126 428 L142 498" stroke="#835748" stroke-width="12" stroke-linecap="round"/>

    <path d="M178 126 L263 204" stroke="#e0c98d" stroke-width="14" stroke-linecap="round"/>
    <path d="M186 204 Q237 176 264 228 Q228 260 177 233 Z" fill="url(#guitarBody)" stroke="#f3d3a0" stroke-width="4"/>
    <circle cx="228" cy="218" r="12" fill="#f3d3a0" opacity="0.85"/>
    <line x1="193" y1="140" x2="249" y2="189" stroke="#f7f6f0" stroke-width="1.6"/>
    <line x1="196" y1="147" x2="252" y2="196" stroke="#9de3ff" stroke-width="1.6"/>
    <line x1="199" y1="154" x2="255" y2="203" stroke="#ffe28d" stroke-width="1.6"/>
    <line x1="202" y1="161" x2="258" y2="210" stroke="#ff8d7c" stroke-width="1.6"/>
    <line x1="205" y1="168" x2="261" y2="217" stroke="#d8ff86" stroke-width="1.6"/>
    <line x1="208" y1="175" x2="264" y2="224" stroke="#f7f6f0" stroke-width="1.6"/>
    <circle cx="198" cy="160" r="10" fill="#d1a787"/>
    <circle cx="255" cy="208" r="10" fill="#d1a787"/>
    <text x="12" y="536" fill="#f6e7c7" font-size="18" font-family="'Trebuchet MS', sans-serif">6 strings, fast right-hand strum, subtle BGV face</text>
  </g>

  <g transform="translate(812 118)">
    <circle cx="118" cy="96" r="40" fill="#f8fdff"/>
    <circle cx="102" cy="90" r="4" fill="#202729"/>
    <circle cx="128" cy="90" r="4" fill="#202729"/>
    <path d="M98 108 Q118 122 138 108" fill="none" stroke="#ab4a3c" stroke-width="5" stroke-linecap="round"/>
    <ellipse cx="118" cy="165" rx="52" ry="58" fill="#f8fdff"/>
    <path d="M82 148 L44 118" stroke="#8b6551" stroke-width="8" stroke-linecap="round"/>
    <path d="M154 148 L196 118" stroke="#8b6551" stroke-width="8" stroke-linecap="round"/>
    <line x1="44" y1="118" x2="18" y2="84" stroke="#f5d087" stroke-width="5" stroke-linecap="round"/>
    <line x1="196" y1="118" x2="226" y2="72" stroke="#f5d087" stroke-width="5" stroke-linecap="round"/>

    <path d="M-4 64 Q42 14 90 66" fill="none" stroke="#e2b65a" stroke-width="8" stroke-linecap="round"/>
    <path d="M150 54 Q212 2 264 64" fill="none" stroke="#e2b65a" stroke-width="8" stroke-linecap="round"/>
    <path d="M-4 44 Q46 -4 96 44" fill="none" stroke="#fff3cf" stroke-width="4" opacity="0.75" stroke-linecap="round"/>
    <path d="M152 36 Q214 -18 270 40" fill="none" stroke="#fff3cf" stroke-width="4" opacity="0.75" stroke-linecap="round"/>

    <ellipse cx="118" cy="246" rx="38" ry="20" fill="#f7e3bf" stroke="#d6b286" stroke-width="4"/>
    <line x1="156" y1="238" x2="196" y2="208" stroke="#d2c8b7" stroke-width="5"/>
    <line x1="156" y1="255" x2="196" y2="255" stroke="#d2c8b7" stroke-width="5"/>
    <line x1="196" y1="208" x2="196" y2="255" stroke="#d2c8b7" stroke-width="4"/>
    <ellipse cx="238" cy="236" rx="36" ry="18" fill="#c4b7aa" stroke="#efe4d0" stroke-width="4"/>

    <circle cx="116" cy="296" r="30" fill="#8f3c25" stroke="#e2b65a" stroke-width="5"/>
    <circle cx="116" cy="296" r="20" fill="none" stroke="#f6e6c0" stroke-width="4"/>
    <circle cx="116" cy="296" r="10" fill="none" stroke="#fff6df" stroke-width="3"/>
    <line x1="95" y1="340" x2="95" y2="404" stroke="#a88d7d" stroke-width="5"/>
    <line x1="138" y1="340" x2="138" y2="404" stroke="#a88d7d" stroke-width="5"/>
  </g>
</svg>
