# Original Helix Aurora kinetic sculpture mesh
v -1.000000 0.055000 -1.055000
v -1.000000 0.055000 -0.945000
v -1.000000 -0.055000 -0.945000
v -1.000000 -0.055000 -1.055000
v 1.000000 0.055000 -1.055000
v 1.000000 0.055000 -0.945000
v 1.000000 -0.055000 -0.945000
v 1.000000 -0.055000 -1.055000
f 1 2 3 4
f 5 8 7 6
f 1 5 6 2
f 2 6 7 3
f 3 7 8 4
f 4 8 5 1
v 1.055000 0.055000 -1.000000
v 0.945000 0.055000 -1.000000
v 0.945000 -0.055000 -1.000000
v 1.055000 -0.055000 -1.000000
v 1.055000 0.055000 1.000000
v 0.945000 0.055000 1.000000
v 0.945000 -0.055000 1.000000
v 1.055000 -0.055000 1.000000
f 9 10 11 12
f 13 16 15 14
f 9 13 14 10
f 10 14 15 11
f 11 15 16 12
f 12 16 13 9
v 1.000000 0.055000 1.055000
v 1.000000 0.055000 0.945000
v 1.000000 -0.055000 0.945000
v 1.000000 -0.055000 1.055000
v -1.000000 0.055000 1.055000
v -1.000000 0.055000 0.945000
v -1.000000 -0.055000 0.945000
v -1.000000 -0.055000 1.055000
f 17 18 19 20
f 21 24 23 22
f 17 21 22 18
f 18 22 23 19
f 19 23 24 20
f 20 24 21 17
v -1.055000 0.055000 1.000000
v -0.945000 0.055000 1.000000
v -0.945000 -0.055000 1.000000
v -1.055000 -0.055000 1.000000
v -1.055000 0.055000 -1.000000
v -0.945000 0.055000 -1.000000
v -0.945000 -0.055000 -1.000000
v -1.055000 -0.055000 -1.000000
f 25 26 27 28
f 29 32 31 30
f 25 29 30 26
f 26 30 31 27
f 27 31 32 28
f 28 32 29 25
