# Original Helix Aurora kinetic sculpture mesh
v 1.056180 0.051099 -0.016816
v 0.946401 0.051099 -0.023793
v 0.943820 -0.051099 0.016816
v 1.053599 -0.051099 0.023793
v 1.048134 0.101604 0.109777
v 0.938356 0.101604 0.102800
v 0.935775 -0.000594 0.143408
v 1.045554 -0.000594 0.150385
f 1 2 3 4
f 5 8 7 6
f 1 5 6 2
f 2 6 7 3
f 3 7 8 4
f 4 8 5 1
v 1.049811 0.101604 0.117024
v 0.941799 0.101604 0.096206
v 0.934098 -0.000594 0.136161
v 1.042111 -0.000594 0.156979
v 1.025805 0.152109 0.241579
v 0.917793 0.152109 0.220762
v 0.910092 0.049911 0.260717
v 1.018104 0.049911 0.281534
f 9 10 11 12
f 13 16 15 14
f 9 13 14 10
f 10 14 15 11
f 11 15 16 12
f 12 16 13 9
v 1.026551 0.152109 0.248980
v 0.922043 0.152109 0.214657
v 0.909346 0.049911 0.253316
v 1.013854 0.049911 0.287639
v 0.986970 0.202614 0.369495
v 0.882462 0.202614 0.335171
v 0.869766 0.100416 0.373830
v 0.974273 0.100416 0.408154
f 17 18 19 20
f 21 24 23 22
f 17 21 22 18
f 18 22 23 19
f 19 23 24 20
f 20 24 21 17
v 0.986773 0.202614 0.376931
v 0.887451 0.202614 0.329654
v 0.869963 0.100416 0.366394
v 0.969285 0.100416 0.413671
v 0.932255 0.253119 0.491465
v 0.832933 0.253119 0.444188
v 0.815444 0.150922 0.480928
v 0.914766 0.150922 0.528206
f 25 26 27 28
f 29 32 31 30
f 25 29 30 26
f 26 30 31 27
f 27 31 32 28
f 28 32 29 25
v 0.931118 0.253119 0.498817
v 0.838580 0.253119 0.439346
v 0.816581 0.150922 0.473577
v 0.909119 0.150922 0.533047
v 0.862539 0.303624 0.605528
v 0.770001 0.303624 0.546057
v 0.748002 0.201427 0.580288
v 0.840540 0.201427 0.639759
f 33 34 35 36
f 37 40 39 38
f 33 37 38 34
f 34 38 39 35
f 35 39 40 36
f 36 40 37 33
v 0.860480 0.303624 0.612676
v 0.776215 0.303624 0.541969
v 0.750060 0.201427 0.573140
v 0.834325 0.201427 0.643847
v 0.778944 0.354129 0.709847
v 0.694679 0.354129 0.639140
v 0.668524 0.251932 0.670311
v 0.752789 0.251932 0.741018
f 41 42 43 44
f 45 48 47 46
f 41 45 46 42
f 42 46 47 43
f 43 47 48 44
f 44 48 45 41
v 0.775997 0.354129 0.716677
v 0.701361 0.354129 0.635872
v 0.671471 0.251932 0.663481
v 0.746107 0.251932 0.744286
v 0.682816 0.404634 0.802745
v 0.608180 0.404634 0.721940
v 0.578289 0.302437 0.749548
v 0.652925 0.302437 0.830353
f 49 50 51 52
f 53 56 55 54
f 49 53 54 50
f 50 54 55 51
f 51 55 56 52
f 52 56 53 49
v 0.679028 0.404634 0.809147
v 0.615222 0.404634 0.719543
v 0.582077 0.302437 0.743146
v 0.645883 0.302437 0.832749
v 0.575701 0.455139 0.882726
v 0.511895 0.455139 0.793122
v 0.478750 0.352942 0.816725
v 0.542556 0.352942 0.906328
f 57 58 59 60
f 61 64 63 62
f 57 61 62 58
f 58 62 63 59
f 59 63 64 60
f 60 64 61 57
v 0.571134 0.455139 0.888597
v 0.519184 0.455139 0.791637
v 0.483317 0.352942 0.810854
v 0.535267 0.352942 0.907814
v 0.459323 0.505644 0.948503
v 0.407373 0.505644 0.851544
v 0.371507 0.403447 0.870760
v 0.423457 0.403447 0.967720
f 65 66 67 68
f 69 72 71 70
f 65 69 70 66
f 66 70 71 67
f 67 71 72 68
f 68 72 69 65
v 0.454049 0.505644 0.953749
v 0.414792 0.505644 0.850993
v 0.376781 0.403447 0.865515
v 0.416038 0.403447 0.968271
v 0.335555 0.556149 0.999019
v 0.296297 0.556149 0.896263
v 0.258286 0.453952 0.910785
v 0.297544 0.453952 1.013541
f 73 74 75 76
f 77 80 79 78
f 73 77 78 74
f 74 78 79 75
f 75 79 80 76
f 76 80 77 73
v 0.329659 0.556149 1.003555
v 0.303725 0.556149 0.896656
v 0.264182 0.453952 0.906249
v 0.290115 0.453952 1.013148
v 0.206387 0.606654 1.033461
v 0.180453 0.606654 0.926562
v 0.140910 0.504457 0.936155
v 0.166843 0.504457 1.043054
f 81 82 83 84
f 85 88 87 86
f 81 85 86 82
f 82 86 87 83
f 83 87 88 84
f 84 88 85 81
v 0.199964 0.606654 1.037214
v 0.187772 0.606654 0.927892
v 0.147332 0.504457 0.932402
v 0.159524 0.504457 1.041724
v 0.073898 0.657159 1.051273
v 0.061706 0.657159 0.941951
v 0.021266 0.554962 0.946461
v 0.033458 0.554962 1.055783
f 89 90 91 92
f 93 96 95 94
f 89 93 94 90
f 90 94 95 91
f 91 95 96 92
f 92 96 93 89
v 0.067052 0.657159 1.054183
v 0.068797 0.657159 0.944197
v 0.028112 0.554962 0.943551
v 0.026367 0.554962 1.053538
v -0.059780 0.707664 1.052171
v -0.058035 0.707664 0.942184
v -0.098720 0.605467 0.941539
v -0.100465 0.605467 1.051525
f 97 98 99 100
f 101 104 103 102
f 97 101 102 98
f 98 102 103 99
f 99 103 104 100
f 100 104 101 97
v -0.066939 0.707664 1.054190
v -0.051285 0.707664 0.945310
v -0.091561 0.605467 0.939519
v -0.107215 0.605467 1.048400
v -0.192496 0.758169 1.036138
v -0.176841 0.758169 0.927258
v -0.217117 0.655972 0.921467
v -0.232772 0.655972 1.030347
f 105 106 107 108
f 109 112 111 110
f 105 109 110 106
f 106 110 111 107
f 107 111 112 108
f 108 112 109 105
v -0.199853 0.758169 1.037235
v -0.170541 0.758169 0.931213
v -0.209760 0.655972 0.920370
v -0.239072 0.655972 1.026392
v -0.322114 0.808674 1.003434
v -0.292802 0.808674 0.897411
v -0.332021 0.706477 0.886568
v -0.361334 0.706477 0.992591
f 113 114 115 116
f 117 120 119 118
f 113 117 118 114
f 114 118 119 115
f 115 119 120 116
f 116 120 117 113
v -0.329551 0.808674 1.003591
v -0.287054 0.808674 0.902132
v -0.324584 0.706477 0.886411
v -0.367082 0.706477 0.987870
v -0.446550 0.859179 0.954584
v -0.404052 0.859179 0.853125
v -0.441583 0.756982 0.837404
v -0.484081 0.756982 0.938863
f 121 122 123 124
f 125 128 127 126
f 121 125 126 122
f 122 126 127 123
f 123 127 128 124
f 124 128 125 121
v -0.453947 0.859179 0.953798
v -0.398947 0.859179 0.858535
v -0.434186 0.756982 0.838190
v -0.489186 0.756982 0.933453
v -0.563801 0.909685 0.890374
v -0.508801 0.909685 0.795111
v -0.544039 0.807487 0.774766
v -0.599039 0.807487 0.870029
f 129 130 131 132
f 133 136 135 134
f 129 133 134 130
f 130 134 135 131
f 131 135 136 132
f 132 136 133 129
v -0.571039 0.909685 0.888658
v -0.504422 0.909685 0.801124
v -0.536801 0.807487 0.776482
v -0.603419 0.807487 0.864016
v -0.671979 0.960190 0.811838
v -0.605362 0.960190 0.724304
v -0.637742 0.857992 0.699661
v -0.704359 0.857992 0.787195
f 137 138 139 140
f 141 144 143 142
f 137 141 142 138
f 138 142 143 139
f 139 143 144 140
f 140 144 141 137
v -0.678942 0.960190 0.809219
v -0.601780 0.960190 0.730823
v -0.630779 0.857992 0.702280
v -0.707942 0.857992 0.780676
v -0.769346 1.010695 0.720239
v -0.692183 1.010695 0.641842
v -0.721183 0.908497 0.613299
v -0.798345 0.908497 0.691696
f 145 146 147 148
f 149 152 151 150
f 145 149 150 146
f 146 150 151 147
f 147 151 152 148
f 148 152 149 145
v -0.775921 1.010695 0.716760
v -0.689455 1.010695 0.648763
v -0.714608 0.908497 0.616778
v -0.801074 0.908497 0.684775
v -0.854333 1.061200 0.617051
v -0.767867 1.061200 0.549054
v -0.793020 0.959002 0.517069
v -0.879486 0.959002 0.585066
f 153 154 155 156
f 157 160 159 158
f 153 157 158 154
f 154 158 159 155
f 155 159 160 156
f 156 160 157 153
v -0.860415 1.061200 0.612768
v -0.766037 1.061200 0.556263
v -0.786938 0.959002 0.521352
v -0.881317 0.959002 0.577856
v -0.925574 1.111705 0.503935
v -0.831196 1.111705 0.447430
v -0.852097 1.009507 0.412518
v -0.946475 1.009507 0.469023
f 161 162 163 164
f 165 168 167 166
f 161 165 166 162
f 162 166 167 163
f 163 167 168 164
f 164 168 165 161
v -0.931064 1.111705 0.498916
v -0.830292 1.111705 0.454814
v -0.846606 1.009507 0.417537
v -0.947378 1.009507 0.461639
v -0.981922 1.162210 0.382710
v -0.881150 1.162210 0.338607
v -0.897464 1.060012 0.301331
v -0.998236 1.060012 0.345433
f 169 170 171 172
f 173 176 175 174
f 169 173 174 170
f 170 174 175 171
f 171 175 176 172
f 172 176 173 169
v -0.986733 1.162210 0.377036
v -0.881189 1.162210 0.346046
v -0.892652 1.060012 0.307004
v -0.998197 1.060012 0.337994
v -1.022470 1.212715 0.255327
v -0.916926 1.212715 0.224336
v -0.928390 1.110517 0.185294
v -1.033934 1.110517 0.216285
f 177 178 179 180
f 181 184 183 182
f 177 181 182 178
f 178 182 183 179
f 179 183 184 180
f 180 184 181 177
v -1.026524 1.212715 0.249090
v -0.917906 1.212715 0.231710
v -0.924335 1.110517 0.191531
v -1.032953 1.110517 0.208911
v -1.046566 1.263220 0.123836
v -0.937948 1.263220 0.106456
v -0.944377 1.161023 0.066276
v -1.052996 1.161023 0.083657
f 185 186 187 188
f 189 192 191 190
f 185 189 190 186
f 186 190 191 187
f 187 191 192 188
f 188 192 189 185
v -1.049799 1.263220 0.117136
v -0.939854 1.263220 0.113646
v -0.941145 1.161023 0.072976
v -1.051090 1.161023 0.076466
v -1.053823 1.313725 -0.009648
v -0.943879 1.313725 -0.013138
v -0.945170 1.211528 -0.053808
v -1.055114 1.211528 -0.050318
f 193 194 195 196
f 197 200 199 198
f 193 197 198 194
f 194 198 199 195
f 195 199 200 196
f 196 200 197 193
v -1.056181 1.313725 -0.016703
v -0.946680 1.313725 -0.006247
v -0.942812 1.211528 -0.046753
v -1.052314 1.211528 -0.057209
v -1.044124 1.364230 -0.142976
v -0.934622 1.364230 -0.132520
v -0.930754 1.262033 -0.173026
v -1.040256 1.262033 -0.183483
f 201 202 203 204
f 205 208 207 206
f 201 205 206 202
f 202 206 207 203
f 203 207 208 204
f 204 208 205 201
v -1.045570 1.364230 -0.150273
v -0.938273 1.364230 -0.126039
v -0.929308 1.262033 -0.165730
v -1.036605 1.262033 -0.189964
v -1.017624 1.414735 -0.274004
v -0.910327 1.414735 -0.249770
v -0.901362 1.312538 -0.289461
v -1.008659 1.312538 -0.313695
f 209 210 211 212
f 213 216 215 214
f 209 213 214 210
f 210 214 215 211
f 211 215 216 212
f 212 216 213 209
v -1.018135 1.414735 -0.281425
v -0.914768 1.414735 -0.243803
v -0.900851 1.312538 -0.282040
v -1.004218 1.312538 -0.319662
v -0.974750 1.465240 -0.400623
v -0.871384 1.465240 -0.363001
v -0.857467 1.363043 -0.401238
v -0.960833 1.363043 -0.438860
f 217 218 219 220
f 221 224 223 222
f 217 221 222 218
f 218 222 223 219
f 219 223 224 220
f 220 224 221 217
v -0.974317 1.465240 -0.408049
v -0.876545 1.465240 -0.357645
v -0.857900 1.363043 -0.393812
v -0.955672 1.363043 -0.444217
v -0.916192 1.515745 -0.520796
v -0.818420 1.515745 -0.470391
v -0.799775 1.413548 -0.506558
v -0.897547 1.413548 -0.556963
f 225 226 227 228
f 229 232 231 230
f 225 229 230 226
f 226 230 231 227
f 227 231 232 228
f 228 232 229 225
v -0.914823 1.515745 -0.528108
v -0.824218 1.515745 -0.465731
v -0.801144 1.413548 -0.499247
v -0.891749 1.413548 -0.561624
v -0.842892 1.566250 -0.632589
v -0.752288 1.566250 -0.570213
v -0.729214 1.464053 -0.603729
v -0.819818 1.464053 -0.666105
f 233 234 235 236
f 237 240 239 238
f 233 237 238 234
f 234 238 239 235
f 235 239 240 236
f 236 240 237 233
v -0.840608 1.566250 -0.639669
v -0.758629 1.566250 -0.566324
v -0.731498 1.464053 -0.596649
v -0.813477 1.464053 -0.669994
v -0.756030 1.616755 -0.734204
v -0.674051 1.616755 -0.660859
v -0.646920 1.514558 -0.691184
v -0.728899 1.514558 -0.764529
f 241 242 243 244
f 245 248 247 246
f 241 245 246 242
f 242 246 247 243
f 243 247 248 244
f 244 248 245 241
v -0.752868 1.616755 -0.740937
v -0.680833 1.616755 -0.657805
v -0.650082 1.514558 -0.684451
v -0.722116 1.514558 -0.767584
v -0.657003 1.667260 -0.824005
v -0.584968 1.667260 -0.740872
v -0.554216 1.565063 -0.767519
v -0.626251 1.565063 -0.850651
f 249 250 251 252
f 253 256 255 254
f 249 253 254 250
f 250 254 255 251
f 251 255 256 252
f 252 256 253 249
v -0.653014 1.667260 -0.830284
v -0.592083 1.667260 -0.738701
v -0.558205 1.565063 -0.761240
v -0.619137 1.565063 -0.852823
v -0.547404 1.717765 -0.900547
v -0.486473 1.717765 -0.808964
v -0.452596 1.615568 -0.831504
v -0.513527 1.615568 -0.923086
f 257 258 259 260
f 261 264 263 262
f 257 261 262 258
f 258 262 263 259
f 259 263 264 260
f 260 264 261 257
v -0.542653 1.717765 -0.906270
v -0.493805 1.717765 -0.807711
v -0.457347 1.615568 -0.825780
v -0.506195 1.615568 -0.924340
v -0.428998 1.768270 -0.962599
v -0.380151 1.768270 -0.864040
v -0.343692 1.666073 -0.882109
v -0.392540 1.666073 -0.980669
f 265 266 267 268
f 269 272 271 270
f 265 269 270 266
f 266 270 271 267
f 267 271 272 268
f 268 272 269 265
v -0.423560 1.768270 -0.967675
v -0.387583 1.768270 -0.863725
v -0.349130 1.666073 -0.877034
v -0.385108 1.666073 -0.980984
v -0.303689 1.818775 -1.009163
v -0.267711 1.818775 -0.905213
v -0.229259 1.716578 -0.918521
v -0.265236 1.716578 -1.022471
f 273 274 275 276
f 277 280 279 278
f 273 277 278 274
f 274 278 279 275
f 275 279 280 276
f 276 280 277 273
v -0.297652 1.818775 -1.013509
v -0.275123 1.818775 -0.905841
v -0.235296 1.716578 -0.914175
v -0.257824 1.716578 -1.021843
v -0.173493 1.869280 -1.039489
v -0.150964 1.869280 -0.931820
v -0.111137 1.767083 -0.940154
v -0.133665 1.767083 -1.047822
f 281 282 283 284
f 285 288 287 286
f 281 285 286 282
f 282 286 287 283
f 283 287 288 284
f 284 288 285 281
v -0.166955 1.869280 -1.043036
v -0.158237 1.869280 -0.933382
v -0.117675 1.767083 -0.936607
v -0.126392 1.767083 -1.046261
v -0.040506 1.919786 -1.053089
v -0.031788 1.919786 -0.943435
v 0.008774 1.817588 -0.946659
v 0.000056 1.817588 -1.056313
f 289 290 291 292
f 293 296 295 294
f 289 293 294 290
f 290 294 295 291
f 291 295 296 292
f 292 296 293 289
v -0.033571 1.919786 -1.055780
v -0.038805 1.919786 -0.945904
v 0.001839 1.817588 -0.943968
v 0.007073 1.817588 -1.053844
v 0.093133 1.970291 -1.049744
v 0.087899 1.970291 -0.939869
v 0.128543 1.868093 -0.937933
v 0.133777 1.868093 -1.047808
f 297 298 299 300
f 301 304 303 302
f 297 301 302 298
f 298 302 303 299
f 299 303 304 300
f 300 304 301 297
v 0.100353 1.970291 -1.051536
v 0.081251 1.970291 -0.943207
v 0.121324 1.868093 -0.936141
v 0.140425 1.868093 -1.044470
v 0.225274 2.020796 -1.029509
v 0.206172 2.020796 -0.921180
v 0.246244 1.918598 -0.914114
v 0.265346 1.918598 -1.022443
f 305 306 307 308
f 309 312 311 310
f 305 309 310 306
f 306 310 311 307
f 307 311 312 308
f 308 312 309 305
v 0.232662 2.020796 -1.030372
v 0.200001 2.020796 -0.925333
v 0.238856 1.918598 -0.913251
v 0.271517 1.918598 -1.018290
v 0.353789 2.071301 -0.992708
v 0.321128 2.071301 -0.887669
v 0.359983 1.969103 -0.875587
v 0.392644 1.969103 -0.980627
f 313 314 315 316
f 317 320 319 318
f 313 317 318 314
f 314 318 319 315
f 315 319 320 316
f 316 320 317 313
v 0.361227 2.071301 -0.992629
v 0.315532 2.071301 -0.892570
v 0.352545 1.969103 -0.875666
v 0.398241 1.969103 -0.975726
v 0.476612 2.121806 -0.939935
v 0.430917 2.121806 -0.839875
v 0.467930 2.019608 -0.822972
v 0.513626 2.019608 -0.923031
f 321 322 323 324
f 325 328 327 326
f 321 325 326 322
f 322 326 327 323
f 323 327 328 324
f 324 328 325 321
v 0.483981 2.121806 -0.938915
v 0.425986 2.121806 -0.845445
v 0.460561 2.019608 -0.823992
v 0.518556 2.019608 -0.917462
v 0.591767 2.172311 -0.872037
v 0.533772 2.172311 -0.778568
v 0.568347 2.070113 -0.757115
v 0.626342 2.070113 -0.850584
f 329 330 331 332
f 333 336 335 334
f 329 333 334 330
f 330 334 335 331
f 331 335 336 332
f 332 336 333 329
v 0.598946 2.172311 -0.870093
v 0.529586 2.172311 -0.784717
v 0.561167 2.070113 -0.759059
v 0.630528 2.070113 -0.844435
v 0.697399 2.222816 -0.790108
v 0.628038 2.222816 -0.704732
v 0.659620 2.120619 -0.679075
v 0.728981 2.120619 -0.764451
f 337 338 339 340
f 341 344 343 342
f 337 341 342 338
f 338 342 343 339
f 339 343 344 340
f 340 344 341 337
v 0.704275 2.222816 -0.787271
v 0.624664 2.222816 -0.711362
v 0.652744 2.120619 -0.681913
v 0.732355 2.120619 -0.757822
v 0.791810 2.273321 -0.695466
v 0.712199 2.273321 -0.619558
v 0.740279 2.171124 -0.590109
v 0.819890 2.171124 -0.666017
f 345 346 347 348
f 349 352 351 350
f 345 349 350 346
f 346 350 351 347
f 347 351 352 348
f 348 352 349 345
v 0.798271 2.273321 -0.691781
v 0.709692 2.273321 -0.626561
v 0.733817 2.171124 -0.593794
v 0.822397 2.171124 -0.659014
v 0.873481 2.323826 -0.589634
v 0.784901 2.323826 -0.524414
v 0.809026 2.221629 -0.491648
v 0.897606 2.221629 -0.556867
f 353 354 355 356
f 357 360 359 358
f 353 357 358 354
f 354 358 359 355
f 355 359 360 356
f 356 360 357 353
v 0.879423 2.323826 -0.585160
v 0.783300 2.323826 -0.531679
v 0.803084 2.221629 -0.496121
v 0.899207 2.221629 -0.549603
v 0.941096 2.374331 -0.474314
v 0.844973 2.374331 -0.420833
v 0.864757 2.272134 -0.385275
v 0.960880 2.272134 -0.438757
f 361 362 363 364
f 365 368 367 366
f 361 365 366 362
f 362 366 367 363
f 363 367 368 364
f 364 368 365 361
v 0.946425 2.374331 -0.469124
v 0.844305 2.374331 -0.428241
v 0.859428 2.272134 -0.390466
v 0.961548 2.272134 -0.431349
v 0.993570 2.424836 -0.351363
v 0.891449 2.424836 -0.310480
v 0.906572 2.322639 -0.272704
v 1.008693 2.322639 -0.313587
f 369 370 371 372
f 373 376 375 374
f 369 373 374 370
f 370 374 375 371
f 371 375 376 372
f 372 376 373 369
v 0.998199 2.424836 -0.345540
v 0.891724 2.424836 -0.317913
v 0.901944 2.322639 -0.278527
v 1.008418 2.322639 -0.306154
v 1.030056 2.475341 -0.222757
v 0.923582 2.475341 -0.195131
v 0.933801 2.373144 -0.155745
v 1.040276 2.373144 -0.183371
f 377 378 379 380
f 381 384 383 382
f 377 381 382 378
f 378 382 383 379
f 379 383 384 380
f 380 384 381 377
v 1.033911 2.475341 -0.216395
v 0.924796 2.475341 -0.202470
v 0.929947 2.373144 -0.162107
v 1.039062 2.373144 -0.176032
v 1.049969 2.525846 -0.090568
v 0.940854 2.525846 -0.076643
v 0.946005 2.423649 -0.036280
v 1.055120 2.423649 -0.050205
f 385 386 387 388
f 389 392 391 390
f 385 389 390 386
f 386 390 391 387
f 387 391 392 388
f 388 392 389 385
v 1.052987 2.525846 -0.083769
v 0.942987 2.525846 -0.083769
v 0.942987 2.423649 -0.043079
v 1.052987 2.423649 -0.043079
v 1.052987 2.576351 0.043079
v 0.942987 2.576351 0.043079
v 0.942987 2.474154 0.083769
v 1.052987 2.474154 0.083769
f 393 394 395 396
f 397 400 399 398
f 393 397 398 394
f 394 398 399 395
f 395 399 400 396
f 396 400 397 393
v 1.055120 2.576351 0.050205
v 0.946005 2.576351 0.036280
v 0.940854 2.474154 0.076643
v 1.049969 2.474154 0.090568
v 1.039062 2.626856 0.176032
v 0.929947 2.626856 0.162107
v 0.924796 2.524659 0.202470
v 1.033911 2.524659 0.216395
f 401 402 403 404
f 405 408 407 406
f 401 405 406 402
f 402 406 407 403
f 403 407 408 404
f 404 408 405 401
v 1.040276 2.626856 0.183371
v 0.933801 2.626856 0.155745
v 0.923582 2.524659 0.195131
v 1.030056 2.524659 0.222757
v 1.008418 2.677361 0.306154
v 0.901944 2.677361 0.278527
v 0.891724 2.575164 0.317913
v 0.998199 2.575164 0.345540
f 409 410 411 412
f 413 416 415 414
f 409 413 414 410
f 410 414 415 411
f 411 415 416 412
f 412 416 413 409
v 1.008693 2.677361 0.313587
v 0.906572 2.677361 0.272704
v 0.891449 2.575164 0.310480
v 0.993570 2.575164 0.351363
v 0.961548 2.727866 0.431349
v 0.859428 2.727866 0.390466
v 0.844305 2.625669 0.428241
v 0.946425 2.625669 0.469124
f 417 418 419 420
f 421 424 423 422
f 417 421 422 418
f 418 422 423 419
f 419 423 424 420
f 420 424 421 417
v 0.960880 2.727866 0.438757
v 0.864757 2.727866 0.385275
v 0.844973 2.625669 0.420833
v 0.941096 2.625669 0.474314
v 0.899207 2.778371 0.549603
v 0.803084 2.778371 0.496121
v 0.783300 2.676174 0.531679
v 0.879423 2.676174 0.585160
f 425 426 427 428
f 429 432 431 430
f 425 429 430 426
f 426 430 431 427
f 427 431 432 428
f 428 432 429 425
v 0.897606 2.778371 0.556867
v 0.809026 2.778371 0.491648
v 0.784901 2.676174 0.524414
v 0.873481 2.676174 0.589634
v 0.822397 2.828876 0.659014
v 0.733817 2.828876 0.593794
v 0.709692 2.726679 0.626561
v 0.798271 2.726679 0.691781
f 433 434 435 436
f 437 440 439 438
f 433 437 438 434
f 434 438 439 435
f 435 439 440 436
f 436 440 437 433
v 0.819890 2.828876 0.666017
v 0.740279 2.828876 0.590109
v 0.712199 2.726679 0.619558
v 0.791810 2.726679 0.695466
v 0.732355 2.879381 0.757822
v 0.652744 2.879381 0.681913
v 0.624664 2.777184 0.711362
v 0.704275 2.777184 0.787271
f 441 442 443 444
f 445 448 447 446
f 441 445 446 442
f 442 446 447 443
f 443 447 448 444
f 444 448 445 441
v 0.728981 2.879381 0.764451
v 0.659620 2.879381 0.679075
v 0.628038 2.777184 0.704732
v 0.697399 2.777184 0.790108
v 0.630528 2.929887 0.844435
v 0.561167 2.929887 0.759059
v 0.529586 2.827689 0.784717
v 0.598946 2.827689 0.870093
f 449 450 451 452
f 453 456 455 454
f 449 453 454 450
f 450 454 455 451
f 451 455 456 452
f 452 456 453 449
v 0.626342 2.929887 0.850584
v 0.568347 2.929887 0.757115
v 0.533772 2.827689 0.778568
v 0.591767 2.827689 0.872037
v 0.518556 2.980392 0.917462
v 0.460561 2.980392 0.823992
v 0.425986 2.878194 0.845445
v 0.483981 2.878194 0.938915
f 457 458 459 460
f 461 464 463 462
f 457 461 462 458
f 458 462 463 459
f 459 463 464 460
f 460 464 461 457
v 0.513626 2.980392 0.923031
v 0.467930 2.980392 0.822972
v 0.430917 2.878194 0.839875
v 0.476612 2.878194 0.939935
v 0.398241 3.030897 0.975726
v 0.352545 3.030897 0.875666
v 0.315532 2.928699 0.892570
v 0.361227 2.928699 0.992629
f 465 466 467 468
f 469 472 471 470
f 465 469 470 466
f 466 470 471 467
f 467 471 472 468
f 468 472 469 465
v 0.392644 3.030897 0.980627
v 0.359983 3.030897 0.875587
v 0.321128 2.928699 0.887669
v 0.353789 2.928699 0.992708
v 0.271517 3.081402 1.018290
v 0.238856 3.081402 0.913251
v 0.200001 2.979204 0.925333
v 0.232662 2.979204 1.030372
f 473 474 475 476
f 477 480 479 478
f 473 477 478 474
f 474 478 479 475
f 475 479 480 476
f 476 480 477 473
v 0.265346 3.081402 1.022443
v 0.246244 3.081402 0.914114
v 0.206172 2.979204 0.921180
v 0.225274 2.979204 1.029509
v 0.140425 3.131907 1.044470
v 0.121324 3.131907 0.936141
v 0.081251 3.029709 0.943207
v 0.100353 3.029709 1.051536
f 481 482 483 484
f 485 488 487 486
f 481 485 486 482
f 482 486 487 483
f 483 487 488 484
f 484 488 485 481
v 0.133777 3.131907 1.047808
v 0.128543 3.131907 0.937933
v 0.087899 3.029709 0.939869
v 0.093133 3.029709 1.049744
v 0.007073 3.182412 1.053844
v 0.001839 3.182412 0.943968
v -0.038805 3.080214 0.945904
v -0.033571 3.080214 1.055780
f 489 490 491 492
f 493 496 495 494
f 489 493 494 490
f 490 494 495 491
f 491 495 496 492
f 492 496 493 489
v 0.000056 3.182412 1.056313
v 0.008774 3.182412 0.946659
v -0.031788 3.080214 0.943435
v -0.040506 3.080214 1.053089
v -0.126392 3.232917 1.046261
v -0.117675 3.232917 0.936607
v -0.158237 3.130720 0.933382
v -0.166955 3.130720 1.043036
f 497 498 499 500
f 501 504 503 502
f 497 501 502 498
f 498 502 503 499
f 499 503 504 500
f 500 504 501 497
v -0.133665 3.232917 1.047822
v -0.111137 3.232917 0.940154
v -0.150964 3.130720 0.931820
v -0.173493 3.130720 1.039489
v -0.257824 3.283422 1.021843
v -0.235296 3.283422 0.914175
v -0.275123 3.181225 0.905841
v -0.297652 3.181225 1.013509
f 505 506 507 508
f 509 512 511 510
f 505 509 510 506
f 506 510 511 507
f 507 511 512 508
f 508 512 509 505
v -0.265236 3.283422 1.022471
v -0.229259 3.283422 0.918521
v -0.267711 3.181225 0.905213
v -0.303689 3.181225 1.009163
v -0.385108 3.333927 0.980984
v -0.349130 3.333927 0.877034
v -0.387583 3.231730 0.863725
v -0.423560 3.231730 0.967675
f 513 514 515 516
f 517 520 519 518
f 513 517 518 514
f 514 518 519 515
f 515 519 520 516
f 516 520 517 513
v -0.392540 3.333927 0.980669
v -0.343692 3.333927 0.882109
v -0.380151 3.231730 0.864040
v -0.428998 3.231730 0.962599
v -0.506195 3.384432 0.924340
v -0.457347 3.384432 0.825780
v -0.493805 3.282235 0.807711
v -0.542653 3.282235 0.906270
f 521 522 523 524
f 525 528 527 526
f 521 525 526 522
f 522 526 527 523
f 523 527 528 524
f 524 528 525 521
v -0.513527 3.384432 0.923086
v -0.452596 3.384432 0.831504
v -0.486473 3.282235 0.808964
v -0.547404 3.282235 0.900547
v -0.619137 3.434937 0.852823
v -0.558205 3.434937 0.761240
v -0.592083 3.332740 0.738701
v -0.653014 3.332740 0.830284
f 529 530 531 532
f 533 536 535 534
f 529 533 534 530
f 530 534 535 531
f 531 535 536 532
f 532 536 533 529
v -0.626251 3.434937 0.850651
v -0.554216 3.434937 0.767519
v -0.584968 3.332740 0.740872
v -0.657003 3.332740 0.824005
v -0.722116 3.485442 0.767584
v -0.650082 3.485442 0.684451
v -0.680833 3.383245 0.657805
v -0.752868 3.383245 0.740937
f 537 538 539 540
f 541 544 543 542
f 537 541 542 538
f 538 542 543 539
f 539 543 544 540
f 540 544 541 537
v -0.728899 3.485442 0.764529
v -0.646920 3.485442 0.691184
v -0.674051 3.383245 0.660859
v -0.756030 3.383245 0.734204
v -0.813477 3.535947 0.669994
v -0.731498 3.535947 0.596649
v -0.758629 3.433750 0.566324
v -0.840608 3.433750 0.639669
f 545 546 547 548
f 549 552 551 550
f 545 549 550 546
f 546 550 551 547
f 547 551 552 548
f 548 552 549 545
v -0.819818 3.535947 0.666105
v -0.729214 3.535947 0.603729
v -0.752288 3.433750 0.570213
v -0.842892 3.433750 0.632589
v -0.891749 3.586452 0.561624
v -0.801144 3.586452 0.499247
v -0.824218 3.484255 0.465731
v -0.914823 3.484255 0.528108
f 553 554 555 556
f 557 560 559 558
f 553 557 558 554
f 554 558 559 555
f 555 559 560 556
f 556 560 557 553
v -0.897547 3.586452 0.556963
v -0.799775 3.586452 0.506558
v -0.818420 3.484255 0.470391
v -0.916192 3.484255 0.520796
v -0.955672 3.636957 0.444217
v -0.857900 3.636957 0.393812
v -0.876545 3.534760 0.357645
v -0.974317 3.534760 0.408049
f 561 562 563 564
f 565 568 567 566
f 561 565 566 562
f 562 566 567 563
f 563 567 568 564
f 564 568 565 561
v -0.960833 3.636957 0.438860
v -0.857467 3.636957 0.401238
v -0.871384 3.534760 0.363001
v -0.974750 3.534760 0.400623
v -1.004218 3.687462 0.319662
v -0.900851 3.687462 0.282040
v -0.914768 3.585265 0.243803
v -1.018135 3.585265 0.281425
f 569 570 571 572
f 573 576 575 574
f 569 573 574 570
f 570 574 575 571
f 571 575 576 572
f 572 576 573 569
v -1.008659 3.687462 0.313695
v -0.901362 3.687462 0.289461
v -0.910327 3.585265 0.249770
v -1.017624 3.585265 0.274004
v -1.036605 3.737967 0.189964
v -0.929308 3.737967 0.165730
v -0.938273 3.635770 0.126039
v -1.045570 3.635770 0.150273
f 577 578 579 580
f 581 584 583 582
f 577 581 582 578
f 578 582 583 579
f 579 583 584 580
f 580 584 581 577
v -1.040256 3.737967 0.183483
v -0.930754 3.737967 0.173026
v -0.934622 3.635770 0.132520
v -1.044124 3.635770 0.142976
v -1.052314 3.788472 0.057209
v -0.942812 3.788472 0.046753
v -0.946680 3.686275 0.006247
v -1.056181 3.686275 0.016703
f 585 586 587 588
f 589 592 591 590
f 585 589 590 586
f 586 590 591 587
f 587 591 592 588
f 588 592 589 585
v -1.055114 3.788472 0.050318
v -0.945170 3.788472 0.053808
v -0.943879 3.686275 0.013138
v -1.053823 3.686275 0.009648
v -1.051090 3.838977 -0.076466
v -0.941145 3.838977 -0.072976
v -0.939854 3.736780 -0.113646
v -1.049799 3.736780 -0.117136
f 593 594 595 596
f 597 600 599 598
f 593 597 598 594
f 594 598 599 595
f 595 599 600 596
f 596 600 597 593
v -1.052996 3.838977 -0.083657
v -0.944377 3.838977 -0.066276
v -0.937948 3.736780 -0.106456
v -1.046566 3.736780 -0.123836
v -1.032953 3.889483 -0.208911
v -0.924335 3.889483 -0.191531
v -0.917906 3.787285 -0.231710
v -1.026524 3.787285 -0.249090
f 601 602 603 604
f 605 608 607 606
f 601 605 606 602
f 602 606 607 603
f 603 607 608 604
f 604 608 605 601
v -1.033934 3.889483 -0.216285
v -0.928390 3.889483 -0.185294
v -0.916926 3.787285 -0.224336
v -1.022470 3.787285 -0.255327
v -0.998197 3.939988 -0.337994
v -0.892652 3.939988 -0.307004
v -0.881189 3.837790 -0.346046
v -0.986733 3.837790 -0.377036
f 609 610 611 612
f 613 616 615 614
f 609 613 614 610
f 610 614 615 611
f 611 615 616 612
f 612 616 613 609
v -0.998236 3.939988 -0.345433
v -0.897464 3.939988 -0.301331
v -0.881150 3.837790 -0.338607
v -0.981922 3.837790 -0.382710
v -0.947378 3.990493 -0.461639
v -0.846606 3.990493 -0.417537
v -0.830292 3.888295 -0.454814
v -0.931064 3.888295 -0.498916
f 617 618 619 620
f 621 624 623 622
f 617 621 622 618
f 618 622 623 619
f 619 623 624 620
f 620 624 621 617
v -0.946475 3.990493 -0.469023
v -0.852097 3.990493 -0.412518
v -0.831196 3.888295 -0.447430
v -0.925574 3.888295 -0.503935
v -0.881317 4.040998 -0.577856
v -0.786938 4.040998 -0.521352
v -0.766037 3.938800 -0.556263
v -0.860415 3.938800 -0.612768
f 625 626 627 628
f 629 632 631 630
f 625 629 630 626
f 626 630 631 627
f 627 631 632 628
f 628 632 629 625
v -0.879486 4.040998 -0.585066
v -0.793020 4.040998 -0.517069
v -0.767867 3.938800 -0.549054
v -0.854333 3.938800 -0.617051
v -0.801074 4.091503 -0.684775
v -0.714608 4.091503 -0.616778
v -0.689455 3.989305 -0.648763
v -0.775921 3.989305 -0.716760
f 633 634 635 636
f 637 640 639 638
f 633 637 638 634
f 634 638 639 635
f 635 639 640 636
f 636 640 637 633
v -0.798345 4.091503 -0.691696
v -0.721183 4.091503 -0.613299
v -0.692183 3.989305 -0.641842
v -0.769346 3.989305 -0.720239
v -0.707942 4.142008 -0.780676
v -0.630779 4.142008 -0.702280
v -0.601780 4.039810 -0.730823
v -0.678942 4.039810 -0.809219
f 641 642 643 644
f 645 648 647 646
f 641 645 646 642
f 642 646 647 643
f 643 647 648 644
f 644 648 645 641
v -0.704359 4.142008 -0.787195
v -0.637742 4.142008 -0.699661
v -0.605362 4.039810 -0.724304
v -0.671979 4.039810 -0.811838
v -0.603419 4.192513 -0.864016
v -0.536801 4.192513 -0.776482
v -0.504422 4.090315 -0.801124
v -0.571039 4.090315 -0.888658
f 649 650 651 652
f 653 656 655 654
f 649 653 654 650
f 650 654 655 651
f 651 655 656 652
f 652 656 653 649
v -0.599039 4.192513 -0.870029
v -0.544039 4.192513 -0.774766
v -0.508801 4.090315 -0.795111
v -0.563801 4.090315 -0.890374
v -0.489186 4.243018 -0.933453
v -0.434186 4.243018 -0.838190
v -0.398947 4.140821 -0.858535
v -0.453947 4.140821 -0.953798
f 657 658 659 660
f 661 664 663 662
f 657 661 662 658
f 658 662 663 659
f 659 663 664 660
f 660 664 661 657
v -0.484081 4.243018 -0.938863
v -0.441583 4.243018 -0.837404
v -0.404052 4.140821 -0.853125
v -0.446550 4.140821 -0.954584
v -0.367082 4.293523 -0.987870
v -0.324584 4.293523 -0.886411
v -0.287054 4.191326 -0.902132
v -0.329551 4.191326 -1.003591
f 665 666 667 668
f 669 672 671 670
f 665 669 670 666
f 666 670 671 667
f 667 671 672 668
f 668 672 669 665
v -0.361334 4.293523 -0.992591
v -0.332021 4.293523 -0.886568
v -0.292802 4.191326 -0.897411
v -0.322114 4.191326 -1.003434
v -0.239072 4.344028 -1.026392
v -0.209760 4.344028 -0.920370
v -0.170541 4.241831 -0.931213
v -0.199853 4.241831 -1.037235
f 673 674 675 676
f 677 680 679 678
f 673 677 678 674
f 674 678 679 675
f 675 679 680 676
f 676 680 677 673
v -0.232772 4.344028 -1.030347
v -0.217117 4.344028 -0.921467
v -0.176841 4.241831 -0.927258
v -0.192496 4.241831 -1.036138
v -0.107215 4.394533 -1.048400
v -0.091561 4.394533 -0.939519
v -0.051285 4.292336 -0.945310
v -0.066939 4.292336 -1.054190
f 681 682 683 684
f 685 688 687 686
f 681 685 686 682
f 682 686 687 683
f 683 687 688 684
f 684 688 685 681
v -0.100465 4.394533 -1.051525
v -0.098720 4.394533 -0.941539
v -0.058035 4.292336 -0.942184
v -0.059780 4.292336 -1.052171
v 0.026367 4.445038 -1.053538
v 0.028112 4.445038 -0.943551
v 0.068797 4.342841 -0.944197
v 0.067052 4.342841 -1.054183
f 689 690 691 692
f 693 696 695 694
f 689 693 694 690
f 690 694 695 691
f 691 695 696 692
f 692 696 693 689
v 0.033458 4.445038 -1.055783
v 0.021266 4.445038 -0.946461
v 0.061706 4.342841 -0.941951
v 0.073898 4.342841 -1.051273
v 0.159524 4.495543 -1.041724
v 0.147332 4.495543 -0.932402
v 0.187772 4.393346 -0.927892
v 0.199964 4.393346 -1.037214
f 697 698 699 700
f 701 704 703 702
f 697 701 702 698
f 698 702 703 699
f 699 703 704 700
f 700 704 701 697
v 0.166843 4.495543 -1.043054
v 0.140910 4.495543 -0.936155
v 0.180453 4.393346 -0.926562
v 0.206387 4.393346 -1.033461
v 0.290115 4.546048 -1.013148
v 0.264182 4.546048 -0.906249
v 0.303725 4.443851 -0.896656
v 0.329659 4.443851 -1.003555
f 705 706 707 708
f 709 712 711 710
f 705 709 710 706
f 706 710 711 707
f 707 711 712 708
f 708 712 709 705
v 0.297544 4.546048 -1.013541
v 0.258286 4.546048 -0.910785
v 0.296297 4.443851 -0.896263
v 0.335555 4.443851 -0.999019
v 0.416038 4.596553 -0.968271
v 0.376781 4.596553 -0.865515
v 0.414792 4.494356 -0.850993
v 0.454049 4.494356 -0.953749
f 713 714 715 716
f 717 720 719 718
f 713 717 718 714
f 714 718 719 715
f 715 719 720 716
f 716 720 717 713
v 0.423457 4.596553 -0.967720
v 0.371507 4.596553 -0.870760
v 0.407373 4.494356 -0.851544
v 0.459323 4.494356 -0.948503
v 0.535267 4.647058 -0.907814
v 0.483317 4.647058 -0.810854
v 0.519184 4.544861 -0.791637
v 0.571134 4.544861 -0.888597
f 721 722 723 724
f 725 728 727 726
f 721 725 726 722
f 722 726 727 723
f 723 727 728 724
f 724 728 725 721
v 0.542556 4.647058 -0.906328
v 0.478750 4.647058 -0.816725
v 0.511895 4.544861 -0.793122
v 0.575701 4.544861 -0.882726
v 0.645883 4.697563 -0.832749
v 0.582077 4.697563 -0.743146
v 0.615222 4.595366 -0.719543
v 0.679028 4.595366 -0.809147
f 729 730 731 732
f 733 736 735 734
f 729 733 734 730
f 730 734 735 731
f 731 735 736 732
f 732 736 733 729
v 0.652925 4.697563 -0.830353
v 0.578289 4.697563 -0.749548
v 0.608180 4.595366 -0.721940
v 0.682816 4.595366 -0.802745
v 0.746107 4.748068 -0.744286
v 0.671471 4.748068 -0.663481
v 0.701361 4.645871 -0.635872
v 0.775997 4.645871 -0.716677
f 737 738 739 740
f 741 744 743 742
f 737 741 742 738
f 738 742 743 739
f 739 743 744 740
f 740 744 741 737
v 0.752789 4.748068 -0.741018
v 0.668524 4.748068 -0.670311
v 0.694679 4.645871 -0.639140
v 0.778944 4.645871 -0.709847
v 0.834325 4.798573 -0.643847
v 0.750060 4.798573 -0.573140
v 0.776215 4.696376 -0.541969
v 0.860480 4.696376 -0.612676
f 745 746 747 748
f 749 752 751 750
f 745 749 750 746
f 746 750 751 747
f 747 751 752 748
f 748 752 749 745
v 0.840540 4.798573 -0.639759
v 0.748002 4.798573 -0.580288
v 0.770001 4.696376 -0.546057
v 0.862539 4.696376 -0.605528
v 0.909119 4.849078 -0.533047
v 0.816581 4.849078 -0.473577
v 0.838580 4.746881 -0.439346
v 0.931118 4.746881 -0.498817
f 753 754 755 756
f 757 760 759 758
f 753 757 758 754
f 754 758 759 755
f 755 759 760 756
f 756 760 757 753
v 0.914766 4.849078 -0.528206
v 0.815444 4.849078 -0.480928
v 0.832933 4.746881 -0.444188
v 0.932255 4.746881 -0.491465
v 0.969285 4.899584 -0.413671
v 0.869963 4.899584 -0.366394
v 0.887451 4.797386 -0.329654
v 0.986773 4.797386 -0.376931
f 761 762 763 764
f 765 768 767 766
f 761 765 766 762
f 762 766 767 763
f 763 767 768 764
f 764 768 765 761
v 0.974273 4.899584 -0.408154
v 0.869766 4.899584 -0.373830
v 0.882462 4.797386 -0.335171
v 0.986970 4.797386 -0.369495
v 1.013854 4.950089 -0.287639
v 0.909346 4.950089 -0.253316
v 0.922043 4.847891 -0.214657
v 1.026551 4.847891 -0.248980
f 769 770 771 772
f 773 776 775 774
f 769 773 774 770
f 770 774 775 771
f 771 775 776 772
f 772 776 773 769
v 1.018104 4.950089 -0.281534
v 0.910092 4.950089 -0.260717
v 0.917793 4.847891 -0.220762
v 1.025805 4.847891 -0.241579
v 1.042111 5.000594 -0.156979
v 0.934098 5.000594 -0.136161
v 0.941799 4.898396 -0.096206
v 1.049811 4.898396 -0.117024
f 777 778 779 780
f 781 784 783 782
f 777 781 782 778
f 778 782 783 779
f 779 783 784 780
f 780 784 781 777
v 1.045554 5.000594 -0.150385
v 0.935775 5.000594 -0.143408
v 0.938356 4.898396 -0.102800
v 1.048134 4.898396 -0.109777
v 1.053599 5.051099 -0.023793
v 0.943820 5.051099 -0.016816
v 0.946401 4.948901 0.023793
v 1.056180 4.948901 0.016816
f 785 786 787 788
f 789 792 791 790
f 785 789 790 786
f 786 790 791 787
f 787 791 792 788
f 788 792 789 785
v -1.056180 0.051099 0.016816
v -0.946401 0.051099 0.023793
v -0.943820 -0.051099 -0.016816
v -1.053599 -0.051099 -0.023793
v -1.048134 0.101604 -0.109777
v -0.938356 0.101604 -0.102800
v -0.935775 -0.000594 -0.143408
v -1.045554 -0.000594 -0.150385
f 793 794 795 796
f 797 800 799 798
f 793 797 798 794
f 794 798 799 795
f 795 799 800 796
f 796 800 797 793
v -1.049811 0.101604 -0.117024
v -0.941799 0.101604 -0.096206
v -0.934098 -0.000594 -0.136161
v -1.042111 -0.000594 -0.156979
v -1.025805 0.152109 -0.241579
v -0.917793 0.152109 -0.220762
v -0.910092 0.049911 -0.260717
v -1.018104 0.049911 -0.281534
f 801 802 803 804
f 805 808 807 806
f 801 805 806 802
f 802 806 807 803
f 803 807 808 804
f 804 808 805 801
v -1.026551 0.152109 -0.248980
v -0.922043 0.152109 -0.214657
v -0.909346 0.049911 -0.253316
v -1.013854 0.049911 -0.287639
v -0.986970 0.202614 -0.369495
v -0.882462 0.202614 -0.335171
v -0.869766 0.100416 -0.373830
v -0.974273 0.100416 -0.408154
f 809 810 811 812
f 813 816 815 814
f 809 813 814 810
f 810 814 815 811
f 811 815 816 812
f 812 816 813 809
v -0.986773 0.202614 -0.376931
v -0.887451 0.202614 -0.329654
v -0.869963 0.100416 -0.366394
v -0.969285 0.100416 -0.413671
v -0.932255 0.253119 -0.491465
v -0.832933 0.253119 -0.444188
v -0.815444 0.150922 -0.480928
v -0.914766 0.150922 -0.528206
f 817 818 819 820
f 821 824 823 822
f 817 821 822 818
f 818 822 823 819
f 819 823 824 820
f 820 824 821 817
v -0.931118 0.253119 -0.498817
v -0.838580 0.253119 -0.439346
v -0.816581 0.150922 -0.473577
v -0.909119 0.150922 -0.533047
v -0.862539 0.303624 -0.605528
v -0.770001 0.303624 -0.546057
v -0.748002 0.201427 -0.580288
v -0.840540 0.201427 -0.639759
f 825 826 827 828
f 829 832 831 830
f 825 829 830 826
f 826 830 831 827
f 827 831 832 828
f 828 832 829 825
v -0.860480 0.303624 -0.612676
v -0.776215 0.303624 -0.541969
v -0.750060 0.201427 -0.573140
v -0.834325 0.201427 -0.643847
v -0.778944 0.354129 -0.709847
v -0.694679 0.354129 -0.639140
v -0.668524 0.251932 -0.670311
v -0.752789 0.251932 -0.741018
f 833 834 835 836
f 837 840 839 838
f 833 837 838 834
f 834 838 839 835
f 835 839 840 836
f 836 840 837 833
v -0.775997 0.354129 -0.716677
v -0.701361 0.354129 -0.635872
v -0.671471 0.251932 -0.663481
v -0.746107 0.251932 -0.744286
v -0.682816 0.404634 -0.802745
v -0.608180 0.404634 -0.721940
v -0.578289 0.302437 -0.749548
v -0.652925 0.302437 -0.830353
f 841 842 843 844
f 845 848 847 846
f 841 845 846 842
f 842 846 847 843
f 843 847 848 844
f 844 848 845 841
v -0.679028 0.404634 -0.809147
v -0.615222 0.404634 -0.719543
v -0.582077 0.302437 -0.743146
v -0.645883 0.302437 -0.832749
v -0.575701 0.455139 -0.882726
v -0.511895 0.455139 -0.793122
v -0.478750 0.352942 -0.816725
v -0.542556 0.352942 -0.906328
f 849 850 851 852
f 853 856 855 854
f 849 853 854 850
f 850 854 855 851
f 851 855 856 852
f 852 856 853 849
v -0.571134 0.455139 -0.888597
v -0.519184 0.455139 -0.791637
v -0.483317 0.352942 -0.810854
v -0.535267 0.352942 -0.907814
v -0.459323 0.505644 -0.948503
v -0.407373 0.505644 -0.851544
v -0.371507 0.403447 -0.870760
v -0.423457 0.403447 -0.967720
f 857 858 859 860
f 861 864 863 862
f 857 861 862 858
f 858 862 863 859
f 859 863 864 860
f 860 864 861 857
v -0.454049 0.505644 -0.953749
v -0.414792 0.505644 -0.850993
v -0.376781 0.403447 -0.865515
v -0.416038 0.403447 -0.968271
v -0.335555 0.556149 -0.999019
v -0.296297 0.556149 -0.896263
v -0.258286 0.453952 -0.910785
v -0.297544 0.453952 -1.013541
f 865 866 867 868
f 869 872 871 870
f 865 869 870 866
f 866 870 871 867
f 867 871 872 868
f 868 872 869 865
v -0.329659 0.556149 -1.003555
v -0.303725 0.556149 -0.896656
v -0.264182 0.453952 -0.906249
v -0.290115 0.453952 -1.013148
v -0.206387 0.606654 -1.033461
v -0.180453 0.606654 -0.926562
v -0.140910 0.504457 -0.936155
v -0.166843 0.504457 -1.043054
f 873 874 875 876
f 877 880 879 878
f 873 877 878 874
f 874 878 879 875
f 875 879 880 876
f 876 880 877 873
v -0.199964 0.606654 -1.037214
v -0.187772 0.606654 -0.927892
v -0.147332 0.504457 -0.932402
v -0.159524 0.504457 -1.041724
v -0.073898 0.657159 -1.051273
v -0.061706 0.657159 -0.941951
v -0.021266 0.554962 -0.946461
v -0.033458 0.554962 -1.055783
f 881 882 883 884
f 885 888 887 886
f 881 885 886 882
f 882 886 887 883
f 883 887 888 884
f 884 888 885 881
v -0.067052 0.657159 -1.054183
v -0.068797 0.657159 -0.944197
v -0.028112 0.554962 -0.943551
v -0.026367 0.554962 -1.053538
v 0.059780 0.707664 -1.052171
v 0.058035 0.707664 -0.942184
v 0.098720 0.605467 -0.941539
v 0.100465 0.605467 -1.051525
f 889 890 891 892
f 893 896 895 894
f 889 893 894 890
f 890 894 895 891
f 891 895 896 892
f 892 896 893 889
v 0.066939 0.707664 -1.054190
v 0.051285 0.707664 -0.945310
v 0.091561 0.605467 -0.939519
v 0.107215 0.605467 -1.048400
v 0.192496 0.758169 -1.036138
v 0.176841 0.758169 -0.927258
v 0.217117 0.655972 -0.921467
v 0.232772 0.655972 -1.030347
f 897 898 899 900
f 901 904 903 902
f 897 901 902 898
f 898 902 903 899
f 899 903 904 900
f 900 904 901 897
v 0.199853 0.758169 -1.037235
v 0.170541 0.758169 -0.931213
v 0.209760 0.655972 -0.920370
v 0.239072 0.655972 -1.026392
v 0.322114 0.808674 -1.003434
v 0.292802 0.808674 -0.897411
v 0.332021 0.706477 -0.886568
v 0.361334 0.706477 -0.992591
f 905 906 907 908
f 909 912 911 910
f 905 909 910 906
f 906 910 911 907
f 907 911 912 908
f 908 912 909 905
v 0.329551 0.808674 -1.003591
v 0.287054 0.808674 -0.902132
v 0.324584 0.706477 -0.886411
v 0.367082 0.706477 -0.987870
v 0.446550 0.859179 -0.954584
v 0.404052 0.859179 -0.853125
v 0.441583 0.756982 -0.837404
v 0.484081 0.756982 -0.938863
f 913 914 915 916
f 917 920 919 918
f 913 917 918 914
f 914 918 919 915
f 915 919 920 916
f 916 920 917 913
v 0.453947 0.859179 -0.953798
v 0.398947 0.859179 -0.858535
v 0.434186 0.756982 -0.838190
v 0.489186 0.756982 -0.933453
v 0.563801 0.909685 -0.890374
v 0.508801 0.909685 -0.795111
v 0.544039 0.807487 -0.774766
v 0.599039 0.807487 -0.870029
f 921 922 923 924
f 925 928 927 926
f 921 925 926 922
f 922 926 927 923
f 923 927 928 924
f 924 928 925 921
v 0.571039 0.909685 -0.888658
v 0.504422 0.909685 -0.801124
v 0.536801 0.807487 -0.776482
v 0.603419 0.807487 -0.864016
v 0.671979 0.960190 -0.811838
v 0.605362 0.960190 -0.724304
v 0.637742 0.857992 -0.699661
v 0.704359 0.857992 -0.787195
f 929 930 931 932
f 933 936 935 934
f 929 933 934 930
f 930 934 935 931
f 931 935 936 932
f 932 936 933 929
v 0.678942 0.960190 -0.809219
v 0.601780 0.960190 -0.730823
v 0.630779 0.857992 -0.702280
v 0.707942 0.857992 -0.780676
v 0.769346 1.010695 -0.720239
v 0.692183 1.010695 -0.641842
v 0.721183 0.908497 -0.613299
v 0.798345 0.908497 -0.691696
f 937 938 939 940
f 941 944 943 942
f 937 941 942 938
f 938 942 943 939
f 939 943 944 940
f 940 944 941 937
v 0.775921 1.010695 -0.716760
v 0.689455 1.010695 -0.648763
v 0.714608 0.908497 -0.616778
v 0.801074 0.908497 -0.684775
v 0.854333 1.061200 -0.617051
v 0.767867 1.061200 -0.549054
v 0.793020 0.959002 -0.517069
v 0.879486 0.959002 -0.585066
f 945 946 947 948
f 949 952 951 950
f 945 949 950 946
f 946 950 951 947
f 947 951 952 948
f 948 952 949 945
v 0.860415 1.061200 -0.612768
v 0.766037 1.061200 -0.556263
v 0.786938 0.959002 -0.521352
v 0.881317 0.959002 -0.577856
v 0.925574 1.111705 -0.503935
v 0.831196 1.111705 -0.447430
v 0.852097 1.009507 -0.412518
v 0.946475 1.009507 -0.469023
f 953 954 955 956
f 957 960 959 958
f 953 957 958 954
f 954 958 959 955
f 955 959 960 956
f 956 960 957 953
v 0.931064 1.111705 -0.498916
v 0.830292 1.111705 -0.454814
v 0.846606 1.009507 -0.417537
v 0.947378 1.009507 -0.461639
v 0.981922 1.162210 -0.382710
v 0.881150 1.162210 -0.338607
v 0.897464 1.060012 -0.301331
v 0.998236 1.060012 -0.345433
f 961 962 963 964
f 965 968 967 966
f 961 965 966 962
f 962 966 967 963
f 963 967 968 964
f 964 968 965 961
v 0.986733 1.162210 -0.377036
v 0.881189 1.162210 -0.346046
v 0.892652 1.060012 -0.307004
v 0.998197 1.060012 -0.337994
v 1.022470 1.212715 -0.255327
v 0.916926 1.212715 -0.224336
v 0.928390 1.110517 -0.185294
v 1.033934 1.110517 -0.216285
f 969 970 971 972
f 973 976 975 974
f 969 973 974 970
f 970 974 975 971
f 971 975 976 972
f 972 976 973 969
v 1.026524 1.212715 -0.249090
v 0.917906 1.212715 -0.231710
v 0.924335 1.110517 -0.191531
v 1.032953 1.110517 -0.208911
v 1.046566 1.263220 -0.123836
v 0.937948 1.263220 -0.106456
v 0.944377 1.161023 -0.066276
v 1.052996 1.161023 -0.083657
f 977 978 979 980
f 981 984 983 982
f 977 981 982 978
f 978 982 983 979
f 979 983 984 980
f 980 984 981 977
v 1.049799 1.263220 -0.117136
v 0.939854 1.263220 -0.113646
v 0.941145 1.161023 -0.072976
v 1.051090 1.161023 -0.076466
v 1.053823 1.313725 0.009648
v 0.943879 1.313725 0.013138
v 0.945170 1.211528 0.053808
v 1.055114 1.211528 0.050318
f 985 986 987 988
f 989 992 991 990
f 985 989 990 986
f 986 990 991 987
f 987 991 992 988
f 988 992 989 985
v 1.056181 1.313725 0.016703
v 0.946680 1.313725 0.006247
v 0.942812 1.211528 0.046753
v 1.052314 1.211528 0.057209
v 1.044124 1.364230 0.142976
v 0.934622 1.364230 0.132520
v 0.930754 1.262033 0.173026
v 1.040256 1.262033 0.183483
f 993 994 995 996
f 997 1000 999 998
f 993 997 998 994
f 994 998 999 995
f 995 999 1000 996
f 996 1000 997 993
v 1.045570 1.364230 0.150273
v 0.938273 1.364230 0.126039
v 0.929308 1.262033 0.165730
v 1.036605 1.262033 0.189964
v 1.017624 1.414735 0.274004
v 0.910327 1.414735 0.249770
v 0.901362 1.312538 0.289461
v 1.008659 1.312538 0.313695
f 1001 1002 1003 1004
f 1005 1008 1007 1006
f 1001 1005 1006 1002
f 1002 1006 1007 1003
f 1003 1007 1008 1004
f 1004 1008 1005 1001
v 1.018135 1.414735 0.281425
v 0.914768 1.414735 0.243803
v 0.900851 1.312538 0.282040
v 1.004218 1.312538 0.319662
v 0.974750 1.465240 0.400623
v 0.871384 1.465240 0.363001
v 0.857467 1.363043 0.401238
v 0.960833 1.363043 0.438860
f 1009 1010 1011 1012
f 1013 1016 1015 1014
f 1009 1013 1014 1010
f 1010 1014 1015 1011
f 1011 1015 1016 1012
f 1012 1016 1013 1009
v 0.974317 1.465240 0.408049
v 0.876545 1.465240 0.357645
v 0.857900 1.363043 0.393812
v 0.955672 1.363043 0.444217
v 0.916192 1.515745 0.520796
v 0.818420 1.515745 0.470391
v 0.799775 1.413548 0.506558
v 0.897547 1.413548 0.556963
f 1017 1018 1019 1020
f 1021 1024 1023 1022
f 1017 1021 1022 1018
f 1018 1022 1023 1019
f 1019 1023 1024 1020
f 1020 1024 1021 1017
v 0.914823 1.515745 0.528108
v 0.824218 1.515745 0.465731
v 0.801144 1.413548 0.499247
v 0.891749 1.413548 0.561624
v 0.842892 1.566250 0.632589
v 0.752288 1.566250 0.570213
v 0.729214 1.464053 0.603729
v 0.819818 1.464053 0.666105
f 1025 1026 1027 1028
f 1029 1032 1031 1030
f 1025 1029 1030 1026
f 1026 1030 1031 1027
f 1027 1031 1032 1028
f 1028 1032 1029 1025
v 0.840608 1.566250 0.639669
v 0.758629 1.566250 0.566324
v 0.731498 1.464053 0.596649
v 0.813477 1.464053 0.669994
v 0.756030 1.616755 0.734204
v 0.674051 1.616755 0.660859
v 0.646920 1.514558 0.691184
v 0.728899 1.514558 0.764529
f 1033 1034 1035 1036
f 1037 1040 1039 1038
f 1033 1037 1038 1034
f 1034 1038 1039 1035
f 1035 1039 1040 1036
f 1036 1040 1037 1033
v 0.752868 1.616755 0.740937
v 0.680833 1.616755 0.657805
v 0.650082 1.514558 0.684451
v 0.722116 1.514558 0.767584
v 0.657003 1.667260 0.824005
v 0.584968 1.667260 0.740872
v 0.554216 1.565063 0.767519
v 0.626251 1.565063 0.850651
f 1041 1042 1043 1044
f 1045 1048 1047 1046
f 1041 1045 1046 1042
f 1042 1046 1047 1043
f 1043 1047 1048 1044
f 1044 1048 1045 1041
v 0.653014 1.667260 0.830284
v 0.592083 1.667260 0.738701
v 0.558205 1.565063 0.761240
v 0.619137 1.565063 0.852823
v 0.547404 1.717765 0.900547
v 0.486473 1.717765 0.808964
v 0.452596 1.615568 0.831504
v 0.513527 1.615568 0.923086
f 1049 1050 1051 1052
f 1053 1056 1055 1054
f 1049 1053 1054 1050
f 1050 1054 1055 1051
f 1051 1055 1056 1052
f 1052 1056 1053 1049
v 0.542653 1.717765 0.906270
v 0.493805 1.717765 0.807711
v 0.457347 1.615568 0.825780
v 0.506195 1.615568 0.924340
v 0.428998 1.768270 0.962599
v 0.380151 1.768270 0.864040
v 0.343692 1.666073 0.882109
v 0.392540 1.666073 0.980669
f 1057 1058 1059 1060
f 1061 1064 1063 1062
f 1057 1061 1062 1058
f 1058 1062 1063 1059
f 1059 1063 1064 1060
f 1060 1064 1061 1057
v 0.423560 1.768270 0.967675
v 0.387583 1.768270 0.863725
v 0.349130 1.666073 0.877034
v 0.385108 1.666073 0.980984
v 0.303689 1.818775 1.009163
v 0.267711 1.818775 0.905213
v 0.229259 1.716578 0.918521
v 0.265236 1.716578 1.022471
f 1065 1066 1067 1068
f 1069 1072 1071 1070
f 1065 1069 1070 1066
f 1066 1070 1071 1067
f 1067 1071 1072 1068
f 1068 1072 1069 1065
v 0.297652 1.818775 1.013509
v 0.275123 1.818775 0.905841
v 0.235296 1.716578 0.914175
v 0.257824 1.716578 1.021843
v 0.173493 1.869280 1.039489
v 0.150964 1.869280 0.931820
v 0.111137 1.767083 0.940154
v 0.133665 1.767083 1.047822
f 1073 1074 1075 1076
f 1077 1080 1079 1078
f 1073 1077 1078 1074
f 1074 1078 1079 1075
f 1075 1079 1080 1076
f 1076 1080 1077 1073
v 0.166955 1.869280 1.043036
v 0.158237 1.869280 0.933382
v 0.117675 1.767083 0.936607
v 0.126392 1.767083 1.046261
v 0.040506 1.919786 1.053089
v 0.031788 1.919786 0.943435
v -0.008774 1.817588 0.946659
v -0.000056 1.817588 1.056313
f 1081 1082 1083 1084
f 1085 1088 1087 1086
f 1081 1085 1086 1082
f 1082 1086 1087 1083
f 1083 1087 1088 1084
f 1084 1088 1085 1081
v 0.033571 1.919786 1.055780
v 0.038805 1.919786 0.945904
v -0.001839 1.817588 0.943968
v -0.007073 1.817588 1.053844
v -0.093133 1.970291 1.049744
v -0.087899 1.970291 0.939869
v -0.128543 1.868093 0.937933
v -0.133777 1.868093 1.047808
f 1089 1090 1091 1092
f 1093 1096 1095 1094
f 1089 1093 1094 1090
f 1090 1094 1095 1091
f 1091 1095 1096 1092
f 1092 1096 1093 1089
v -0.100353 1.970291 1.051536
v -0.081251 1.970291 0.943207
v -0.121324 1.868093 0.936141
v -0.140425 1.868093 1.044470
v -0.225274 2.020796 1.029509
v -0.206172 2.020796 0.921180
v -0.246244 1.918598 0.914114
v -0.265346 1.918598 1.022443
f 1097 1098 1099 1100
f 1101 1104 1103 1102
f 1097 1101 1102 1098
f 1098 1102 1103 1099
f 1099 1103 1104 1100
f 1100 1104 1101 1097
v -0.232662 2.020796 1.030372
v -0.200001 2.020796 0.925333
v -0.238856 1.918598 0.913251
v -0.271517 1.918598 1.018290
v -0.353789 2.071301 0.992708
v -0.321128 2.071301 0.887669
v -0.359983 1.969103 0.875587
v -0.392644 1.969103 0.980627
f 1105 1106 1107 1108
f 1109 1112 1111 1110
f 1105 1109 1110 1106
f 1106 1110 1111 1107
f 1107 1111 1112 1108
f 1108 1112 1109 1105
v -0.361227 2.071301 0.992629
v -0.315532 2.071301 0.892570
v -0.352545 1.969103 0.875666
v -0.398241 1.969103 0.975726
v -0.476612 2.121806 0.939935
v -0.430917 2.121806 0.839875
v -0.467930 2.019608 0.822972
v -0.513626 2.019608 0.923031
f 1113 1114 1115 1116
f 1117 1120 1119 1118
f 1113 1117 1118 1114
f 1114 1118 1119 1115
f 1115 1119 1120 1116
f 1116 1120 1117 1113
v -0.483981 2.121806 0.938915
v -0.425986 2.121806 0.845445
v -0.460561 2.019608 0.823992
v -0.518556 2.019608 0.917462
v -0.591767 2.172311 0.872037
v -0.533772 2.172311 0.778568
v -0.568347 2.070113 0.757115
v -0.626342 2.070113 0.850584
f 1121 1122 1123 1124
f 1125 1128 1127 1126
f 1121 1125 1126 1122
f 1122 1126 1127 1123
f 1123 1127 1128 1124
f 1124 1128 1125 1121
v -0.598946 2.172311 0.870093
v -0.529586 2.172311 0.784717
v -0.561167 2.070113 0.759059
v -0.630528 2.070113 0.844435
v -0.697399 2.222816 0.790108
v -0.628038 2.222816 0.704732
v -0.659620 2.120619 0.679075
v -0.728981 2.120619 0.764451
f 1129 1130 1131 1132
f 1133 1136 1135 1134
f 1129 1133 1134 1130
f 1130 1134 1135 1131
f 1131 1135 1136 1132
f 1132 1136 1133 1129
v -0.704275 2.222816 0.787271
v -0.624664 2.222816 0.711362
v -0.652744 2.120619 0.681913
v -0.732355 2.120619 0.757822
v -0.791810 2.273321 0.695466
v -0.712199 2.273321 0.619558
v -0.740279 2.171124 0.590109
v -0.819890 2.171124 0.666017
f 1137 1138 1139 1140
f 1141 1144 1143 1142
f 1137 1141 1142 1138
f 1138 1142 1143 1139
f 1139 1143 1144 1140
f 1140 1144 1141 1137
v -0.798271 2.273321 0.691781
v -0.709692 2.273321 0.626561
v -0.733817 2.171124 0.593794
v -0.822397 2.171124 0.659014
v -0.873481 2.323826 0.589634
v -0.784901 2.323826 0.524414
v -0.809026 2.221629 0.491648
v -0.897606 2.221629 0.556867
f 1145 1146 1147 1148
f 1149 1152 1151 1150
f 1145 1149 1150 1146
f 1146 1150 1151 1147
f 1147 1151 1152 1148
f 1148 1152 1149 1145
v -0.879423 2.323826 0.585160
v -0.783300 2.323826 0.531679
v -0.803084 2.221629 0.496121
v -0.899207 2.221629 0.549603
v -0.941096 2.374331 0.474314
v -0.844973 2.374331 0.420833
v -0.864757 2.272134 0.385275
v -0.960880 2.272134 0.438757
f 1153 1154 1155 1156
f 1157 1160 1159 1158
f 1153 1157 1158 1154
f 1154 1158 1159 1155
f 1155 1159 1160 1156
f 1156 1160 1157 1153
v -0.946425 2.374331 0.469124
v -0.844305 2.374331 0.428241
v -0.859428 2.272134 0.390466
v -0.961548 2.272134 0.431349
v -0.993570 2.424836 0.351363
v -0.891449 2.424836 0.310480
v -0.906572 2.322639 0.272704
v -1.008693 2.322639 0.313587
f 1161 1162 1163 1164
f 1165 1168 1167 1166
f 1161 1165 1166 1162
f 1162 1166 1167 1163
f 1163 1167 1168 1164
f 1164 1168 1165 1161
v -0.998199 2.424836 0.345540
v -0.891724 2.424836 0.317913
v -0.901944 2.322639 0.278527
v -1.008418 2.322639 0.306154
v -1.030056 2.475341 0.222757
v -0.923582 2.475341 0.195131
v -0.933801 2.373144 0.155745
v -1.040276 2.373144 0.183371
f 1169 1170 1171 1172
f 1173 1176 1175 1174
f 1169 1173 1174 1170
f 1170 1174 1175 1171
f 1171 1175 1176 1172
f 1172 1176 1173 1169
v -1.033911 2.475341 0.216395
v -0.924796 2.475341 0.202470
v -0.929947 2.373144 0.162107
v -1.039062 2.373144 0.176032
v -1.049969 2.525846 0.090568
v -0.940854 2.525846 0.076643
v -0.946005 2.423649 0.036280
v -1.055120 2.423649 0.050205
f 1177 1178 1179 1180
f 1181 1184 1183 1182
f 1177 1181 1182 1178
f 1178 1182 1183 1179
f 1179 1183 1184 1180
f 1180 1184 1181 1177
v -1.052987 2.525846 0.083769
v -0.942987 2.525846 0.083769
v -0.942987 2.423649 0.043079
v -1.052987 2.423649 0.043079
v -1.052987 2.576351 -0.043079
v -0.942987 2.576351 -0.043079
v -0.942987 2.474154 -0.083769
v -1.052987 2.474154 -0.083769
f 1185 1186 1187 1188
f 1189 1192 1191 1190
f 1185 1189 1190 1186
f 1186 1190 1191 1187
f 1187 1191 1192 1188
f 1188 1192 1189 1185
v -1.055120 2.576351 -0.050205
v -0.946005 2.576351 -0.036280
v -0.940854 2.474154 -0.076643
v -1.049969 2.474154 -0.090568
v -1.039062 2.626856 -0.176032
v -0.929947 2.626856 -0.162107
v -0.924796 2.524659 -0.202470
v -1.033911 2.524659 -0.216395
f 1193 1194 1195 1196
f 1197 1200 1199 1198
f 1193 1197 1198 1194
f 1194 1198 1199 1195
f 1195 1199 1200 1196
f 1196 1200 1197 1193
v -1.040276 2.626856 -0.183371
v -0.933801 2.626856 -0.155745
v -0.923582 2.524659 -0.195131
v -1.030056 2.524659 -0.222757
v -1.008418 2.677361 -0.306154
v -0.901944 2.677361 -0.278527
v -0.891724 2.575164 -0.317913
v -0.998199 2.575164 -0.345540
f 1201 1202 1203 1204
f 1205 1208 1207 1206
f 1201 1205 1206 1202
f 1202 1206 1207 1203
f 1203 1207 1208 1204
f 1204 1208 1205 1201
v -1.008693 2.677361 -0.313587
v -0.906572 2.677361 -0.272704
v -0.891449 2.575164 -0.310480
v -0.993570 2.575164 -0.351363
v -0.961548 2.727866 -0.431349
v -0.859428 2.727866 -0.390466
v -0.844305 2.625669 -0.428241
v -0.946425 2.625669 -0.469124
f 1209 1210 1211 1212
f 1213 1216 1215 1214
f 1209 1213 1214 1210
f 1210 1214 1215 1211
f 1211 1215 1216 1212
f 1212 1216 1213 1209
v -0.960880 2.727866 -0.438757
v -0.864757 2.727866 -0.385275
v -0.844973 2.625669 -0.420833
v -0.941096 2.625669 -0.474314
v -0.899207 2.778371 -0.549603
v -0.803084 2.778371 -0.496121
v -0.783300 2.676174 -0.531679
v -0.879423 2.676174 -0.585160
f 1217 1218 1219 1220
f 1221 1224 1223 1222
f 1217 1221 1222 1218
f 1218 1222 1223 1219
f 1219 1223 1224 1220
f 1220 1224 1221 1217
v -0.897606 2.778371 -0.556867
v -0.809026 2.778371 -0.491648
v -0.784901 2.676174 -0.524414
v -0.873481 2.676174 -0.589634
v -0.822397 2.828876 -0.659014
v -0.733817 2.828876 -0.593794
v -0.709692 2.726679 -0.626561
v -0.798271 2.726679 -0.691781
f 1225 1226 1227 1228
f 1229 1232 1231 1230
f 1225 1229 1230 1226
f 1226 1230 1231 1227
f 1227 1231 1232 1228
f 1228 1232 1229 1225
v -0.819890 2.828876 -0.666017
v -0.740279 2.828876 -0.590109
v -0.712199 2.726679 -0.619558
v -0.791810 2.726679 -0.695466
v -0.732355 2.879381 -0.757822
v -0.652744 2.879381 -0.681913
v -0.624664 2.777184 -0.711362
v -0.704275 2.777184 -0.787271
f 1233 1234 1235 1236
f 1237 1240 1239 1238
f 1233 1237 1238 1234
f 1234 1238 1239 1235
f 1235 1239 1240 1236
f 1236 1240 1237 1233
v -0.728981 2.879381 -0.764451
v -0.659620 2.879381 -0.679075
v -0.628038 2.777184 -0.704732
v -0.697399 2.777184 -0.790108
v -0.630528 2.929887 -0.844435
v -0.561167 2.929887 -0.759059
v -0.529586 2.827689 -0.784717
v -0.598946 2.827689 -0.870093
f 1241 1242 1243 1244
f 1245 1248 1247 1246
f 1241 1245 1246 1242
f 1242 1246 1247 1243
f 1243 1247 1248 1244
f 1244 1248 1245 1241
v -0.626342 2.929887 -0.850584
v -0.568347 2.929887 -0.757115
v -0.533772 2.827689 -0.778568
v -0.591767 2.827689 -0.872037
v -0.518556 2.980392 -0.917462
v -0.460561 2.980392 -0.823992
v -0.425986 2.878194 -0.845445
v -0.483981 2.878194 -0.938915
f 1249 1250 1251 1252
f 1253 1256 1255 1254
f 1249 1253 1254 1250
f 1250 1254 1255 1251
f 1251 1255 1256 1252
f 1252 1256 1253 1249
v -0.513626 2.980392 -0.923031
v -0.467930 2.980392 -0.822972
v -0.430917 2.878194 -0.839875
v -0.476612 2.878194 -0.939935
v -0.398241 3.030897 -0.975726
v -0.352545 3.030897 -0.875666
v -0.315532 2.928699 -0.892570
v -0.361227 2.928699 -0.992629
f 1257 1258 1259 1260
f 1261 1264 1263 1262
f 1257 1261 1262 1258
f 1258 1262 1263 1259
f 1259 1263 1264 1260
f 1260 1264 1261 1257
v -0.392644 3.030897 -0.980627
v -0.359983 3.030897 -0.875587
v -0.321128 2.928699 -0.887669
v -0.353789 2.928699 -0.992708
v -0.271517 3.081402 -1.018290
v -0.238856 3.081402 -0.913251
v -0.200001 2.979204 -0.925333
v -0.232662 2.979204 -1.030372
f 1265 1266 1267 1268
f 1269 1272 1271 1270
f 1265 1269 1270 1266
f 1266 1270 1271 1267
f 1267 1271 1272 1268
f 1268 1272 1269 1265
v -0.265346 3.081402 -1.022443
v -0.246244 3.081402 -0.914114
v -0.206172 2.979204 -0.921180
v -0.225274 2.979204 -1.029509
v -0.140425 3.131907 -1.044470
v -0.121324 3.131907 -0.936141
v -0.081251 3.029709 -0.943207
v -0.100353 3.029709 -1.051536
f 1273 1274 1275 1276
f 1277 1280 1279 1278
f 1273 1277 1278 1274
f 1274 1278 1279 1275
f 1275 1279 1280 1276
f 1276 1280 1277 1273
v -0.133777 3.131907 -1.047808
v -0.128543 3.131907 -0.937933
v -0.087899 3.029709 -0.939869
v -0.093133 3.029709 -1.049744
v -0.007073 3.182412 -1.053844
v -0.001839 3.182412 -0.943968
v 0.038805 3.080214 -0.945904
v 0.033571 3.080214 -1.055780
f 1281 1282 1283 1284
f 1285 1288 1287 1286
f 1281 1285 1286 1282
f 1282 1286 1287 1283
f 1283 1287 1288 1284
f 1284 1288 1285 1281
v -0.000056 3.182412 -1.056313
v -0.008774 3.182412 -0.946659
v 0.031788 3.080214 -0.943435
v 0.040506 3.080214 -1.053089
v 0.126392 3.232917 -1.046261
v 0.117675 3.232917 -0.936607
v 0.158237 3.130720 -0.933382
v 0.166955 3.130720 -1.043036
f 1289 1290 1291 1292
f 1293 1296 1295 1294
f 1289 1293 1294 1290
f 1290 1294 1295 1291
f 1291 1295 1296 1292
f 1292 1296 1293 1289
v 0.133665 3.232917 -1.047822
v 0.111137 3.232917 -0.940154
v 0.150964 3.130720 -0.931820
v 0.173493 3.130720 -1.039489
v 0.257824 3.283422 -1.021843
v 0.235296 3.283422 -0.914175
v 0.275123 3.181225 -0.905841
v 0.297652 3.181225 -1.013509
f 1297 1298 1299 1300
f 1301 1304 1303 1302
f 1297 1301 1302 1298
f 1298 1302 1303 1299
f 1299 1303 1304 1300
f 1300 1304 1301 1297
v 0.265236 3.283422 -1.022471
v 0.229259 3.283422 -0.918521
v 0.267711 3.181225 -0.905213
v 0.303689 3.181225 -1.009163
v 0.385108 3.333927 -0.980984
v 0.349130 3.333927 -0.877034
v 0.387583 3.231730 -0.863725
v 0.423560 3.231730 -0.967675
f 1305 1306 1307 1308
f 1309 1312 1311 1310
f 1305 1309 1310 1306
f 1306 1310 1311 1307
f 1307 1311 1312 1308
f 1308 1312 1309 1305
v 0.392540 3.333927 -0.980669
v 0.343692 3.333927 -0.882109
v 0.380151 3.231730 -0.864040
v 0.428998 3.231730 -0.962599
v 0.506195 3.384432 -0.924340
v 0.457347 3.384432 -0.825780
v 0.493805 3.282235 -0.807711
v 0.542653 3.282235 -0.906270
f 1313 1314 1315 1316
f 1317 1320 1319 1318
f 1313 1317 1318 1314
f 1314 1318 1319 1315
f 1315 1319 1320 1316
f 1316 1320 1317 1313
v 0.513527 3.384432 -0.923086
v 0.452596 3.384432 -0.831504
v 0.486473 3.282235 -0.808964
v 0.547404 3.282235 -0.900547
v 0.619137 3.434937 -0.852823
v 0.558205 3.434937 -0.761240
v 0.592083 3.332740 -0.738701
v 0.653014 3.332740 -0.830284
f 1321 1322 1323 1324
f 1325 1328 1327 1326
f 1321 1325 1326 1322
f 1322 1326 1327 1323
f 1323 1327 1328 1324
f 1324 1328 1325 1321
v 0.626251 3.434937 -0.850651
v 0.554216 3.434937 -0.767519
v 0.584968 3.332740 -0.740872
v 0.657003 3.332740 -0.824005
v 0.722116 3.485442 -0.767584
v 0.650082 3.485442 -0.684451
v 0.680833 3.383245 -0.657805
v 0.752868 3.383245 -0.740937
f 1329 1330 1331 1332
f 1333 1336 1335 1334
f 1329 1333 1334 1330
f 1330 1334 1335 1331
f 1331 1335 1336 1332
f 1332 1336 1333 1329
v 0.728899 3.485442 -0.764529
v 0.646920 3.485442 -0.691184
v 0.674051 3.383245 -0.660859
v 0.756030 3.383245 -0.734204
v 0.813477 3.535947 -0.669994
v 0.731498 3.535947 -0.596649
v 0.758629 3.433750 -0.566324
v 0.840608 3.433750 -0.639669
f 1337 1338 1339 1340
f 1341 1344 1343 1342
f 1337 1341 1342 1338
f 1338 1342 1343 1339
f 1339 1343 1344 1340
f 1340 1344 1341 1337
v 0.819818 3.535947 -0.666105
v 0.729214 3.535947 -0.603729
v 0.752288 3.433750 -0.570213
v 0.842892 3.433750 -0.632589
v 0.891749 3.586452 -0.561624
v 0.801144 3.586452 -0.499247
v 0.824218 3.484255 -0.465731
v 0.914823 3.484255 -0.528108
f 1345 1346 1347 1348
f 1349 1352 1351 1350
f 1345 1349 1350 1346
f 1346 1350 1351 1347
f 1347 1351 1352 1348
f 1348 1352 1349 1345
v 0.897547 3.586452 -0.556963
v 0.799775 3.586452 -0.506558
v 0.818420 3.484255 -0.470391
v 0.916192 3.484255 -0.520796
v 0.955672 3.636957 -0.444217
v 0.857900 3.636957 -0.393812
v 0.876545 3.534760 -0.357645
v 0.974317 3.534760 -0.408049
f 1353 1354 1355 1356
f 1357 1360 1359 1358
f 1353 1357 1358 1354
f 1354 1358 1359 1355
f 1355 1359 1360 1356
f 1356 1360 1357 1353
v 0.960833 3.636957 -0.438860
v 0.857467 3.636957 -0.401238
v 0.871384 3.534760 -0.363001
v 0.974750 3.534760 -0.400623
v 1.004218 3.687462 -0.319662
v 0.900851 3.687462 -0.282040
v 0.914768 3.585265 -0.243803
v 1.018135 3.585265 -0.281425
f 1361 1362 1363 1364
f 1365 1368 1367 1366
f 1361 1365 1366 1362
f 1362 1366 1367 1363
f 1363 1367 1368 1364
f 1364 1368 1365 1361
v 1.008659 3.687462 -0.313695
v 0.901362 3.687462 -0.289461
v 0.910327 3.585265 -0.249770
v 1.017624 3.585265 -0.274004
v 1.036605 3.737967 -0.189964
v 0.929308 3.737967 -0.165730
v 0.938273 3.635770 -0.126039
v 1.045570 3.635770 -0.150273
f 1369 1370 1371 1372
f 1373 1376 1375 1374
f 1369 1373 1374 1370
f 1370 1374 1375 1371
f 1371 1375 1376 1372
f 1372 1376 1373 1369
v 1.040256 3.737967 -0.183483
v 0.930754 3.737967 -0.173026
v 0.934622 3.635770 -0.132520
v 1.044124 3.635770 -0.142976
v 1.052314 3.788472 -0.057209
v 0.942812 3.788472 -0.046753
v 0.946680 3.686275 -0.006247
v 1.056181 3.686275 -0.016703
f 1377 1378 1379 1380
f 1381 1384 1383 1382
f 1377 1381 1382 1378
f 1378 1382 1383 1379
f 1379 1383 1384 1380
f 1380 1384 1381 1377
v 1.055114 3.788472 -0.050318
v 0.945170 3.788472 -0.053808
v 0.943879 3.686275 -0.013138
v 1.053823 3.686275 -0.009648
v 1.051090 3.838977 0.076466
v 0.941145 3.838977 0.072976
v 0.939854 3.736780 0.113646
v 1.049799 3.736780 0.117136
f 1385 1386 1387 1388
f 1389 1392 1391 1390
f 1385 1389 1390 1386
f 1386 1390 1391 1387
f 1387 1391 1392 1388
f 1388 1392 1389 1385
v 1.052996 3.838977 0.083657
v 0.944377 3.838977 0.066276
v 0.937948 3.736780 0.106456
v 1.046566 3.736780 0.123836
v 1.032953 3.889483 0.208911
v 0.924335 3.889483 0.191531
v 0.917906 3.787285 0.231710
v 1.026524 3.787285 0.249090
f 1393 1394 1395 1396
f 1397 1400 1399 1398
f 1393 1397 1398 1394
f 1394 1398 1399 1395
f 1395 1399 1400 1396
f 1396 1400 1397 1393
v 1.033934 3.889483 0.216285
v 0.928390 3.889483 0.185294
v 0.916926 3.787285 0.224336
v 1.022470 3.787285 0.255327
v 0.998197 3.939988 0.337994
v 0.892652 3.939988 0.307004
v 0.881189 3.837790 0.346046
v 0.986733 3.837790 0.377036
f 1401 1402 1403 1404
f 1405 1408 1407 1406
f 1401 1405 1406 1402
f 1402 1406 1407 1403
f 1403 1407 1408 1404
f 1404 1408 1405 1401
v 0.998236 3.939988 0.345433
v 0.897464 3.939988 0.301331
v 0.881150 3.837790 0.338607
v 0.981922 3.837790 0.382710
v 0.947378 3.990493 0.461639
v 0.846606 3.990493 0.417537
v 0.830292 3.888295 0.454814
v 0.931064 3.888295 0.498916
f 1409 1410 1411 1412
f 1413 1416 1415 1414
f 1409 1413 1414 1410
f 1410 1414 1415 1411
f 1411 1415 1416 1412
f 1412 1416 1413 1409
v 0.946475 3.990493 0.469023
v 0.852097 3.990493 0.412518
v 0.831196 3.888295 0.447430
v 0.925574 3.888295 0.503935
v 0.881317 4.040998 0.577856
v 0.786938 4.040998 0.521352
v 0.766037 3.938800 0.556263
v 0.860415 3.938800 0.612768
f 1417 1418 1419 1420
f 1421 1424 1423 1422
f 1417 1421 1422 1418
f 1418 1422 1423 1419
f 1419 1423 1424 1420
f 1420 1424 1421 1417
v 0.879486 4.040998 0.585066
v 0.793020 4.040998 0.517069
v 0.767867 3.938800 0.549054
v 0.854333 3.938800 0.617051
v 0.801074 4.091503 0.684775
v 0.714608 4.091503 0.616778
v 0.689455 3.989305 0.648763
v 0.775921 3.989305 0.716760
f 1425 1426 1427 1428
f 1429 1432 1431 1430
f 1425 1429 1430 1426
f 1426 1430 1431 1427
f 1427 1431 1432 1428
f 1428 1432 1429 1425
v 0.798345 4.091503 0.691696
v 0.721183 4.091503 0.613299
v 0.692183 3.989305 0.641842
v 0.769346 3.989305 0.720239
v 0.707942 4.142008 0.780676
v 0.630779 4.142008 0.702280
v 0.601780 4.039810 0.730823
v 0.678942 4.039810 0.809219
f 1433 1434 1435 1436
f 1437 1440 1439 1438
f 1433 1437 1438 1434
f 1434 1438 1439 1435
f 1435 1439 1440 1436
f 1436 1440 1437 1433
v 0.704359 4.142008 0.787195
v 0.637742 4.142008 0.699661
v 0.605362 4.039810 0.724304
v 0.671979 4.039810 0.811838
v 0.603419 4.192513 0.864016
v 0.536801 4.192513 0.776482
v 0.504422 4.090315 0.801124
v 0.571039 4.090315 0.888658
f 1441 1442 1443 1444
f 1445 1448 1447 1446
f 1441 1445 1446 1442
f 1442 1446 1447 1443
f 1443 1447 1448 1444
f 1444 1448 1445 1441
v 0.599039 4.192513 0.870029
v 0.544039 4.192513 0.774766
v 0.508801 4.090315 0.795111
v 0.563801 4.090315 0.890374
v 0.489186 4.243018 0.933453
v 0.434186 4.243018 0.838190
v 0.398947 4.140821 0.858535
v 0.453947 4.140821 0.953798
f 1449 1450 1451 1452
f 1453 1456 1455 1454
f 1449 1453 1454 1450
f 1450 1454 1455 1451
f 1451 1455 1456 1452
f 1452 1456 1453 1449
v 0.484081 4.243018 0.938863
v 0.441583 4.243018 0.837404
v 0.404052 4.140821 0.853125
v 0.446550 4.140821 0.954584
v 0.367082 4.293523 0.987870
v 0.324584 4.293523 0.886411
v 0.287054 4.191326 0.902132
v 0.329551 4.191326 1.003591
f 1457 1458 1459 1460
f 1461 1464 1463 1462
f 1457 1461 1462 1458
f 1458 1462 1463 1459
f 1459 1463 1464 1460
f 1460 1464 1461 1457
v 0.361334 4.293523 0.992591
v 0.332021 4.293523 0.886568
v 0.292802 4.191326 0.897411
v 0.322114 4.191326 1.003434
v 0.239072 4.344028 1.026392
v 0.209760 4.344028 0.920370
v 0.170541 4.241831 0.931213
v 0.199853 4.241831 1.037235
f 1465 1466 1467 1468
f 1469 1472 1471 1470
f 1465 1469 1470 1466
f 1466 1470 1471 1467
f 1467 1471 1472 1468
f 1468 1472 1469 1465
v 0.232772 4.344028 1.030347
v 0.217117 4.344028 0.921467
v 0.176841 4.241831 0.927258
v 0.192496 4.241831 1.036138
v 0.107215 4.394533 1.048400
v 0.091561 4.394533 0.939519
v 0.051285 4.292336 0.945310
v 0.066939 4.292336 1.054190
f 1473 1474 1475 1476
f 1477 1480 1479 1478
f 1473 1477 1478 1474
f 1474 1478 1479 1475
f 1475 1479 1480 1476
f 1476 1480 1477 1473
v 0.100465 4.394533 1.051525
v 0.098720 4.394533 0.941539
v 0.058035 4.292336 0.942184
v 0.059780 4.292336 1.052171
v -0.026367 4.445038 1.053538
v -0.028112 4.445038 0.943551
v -0.068797 4.342841 0.944197
v -0.067052 4.342841 1.054183
f 1481 1482 1483 1484
f 1485 1488 1487 1486
f 1481 1485 1486 1482
f 1482 1486 1487 1483
f 1483 1487 1488 1484
f 1484 1488 1485 1481
v -0.033458 4.445038 1.055783
v -0.021266 4.445038 0.946461
v -0.061706 4.342841 0.941951
v -0.073898 4.342841 1.051273
v -0.159524 4.495543 1.041724
v -0.147332 4.495543 0.932402
v -0.187772 4.393346 0.927892
v -0.199964 4.393346 1.037214
f 1489 1490 1491 1492
f 1493 1496 1495 1494
f 1489 1493 1494 1490
f 1490 1494 1495 1491
f 1491 1495 1496 1492
f 1492 1496 1493 1489
v -0.166843 4.495543 1.043054
v -0.140910 4.495543 0.936155
v -0.180453 4.393346 0.926562
v -0.206387 4.393346 1.033461
v -0.290115 4.546048 1.013148
v -0.264182 4.546048 0.906249
v -0.303725 4.443851 0.896656
v -0.329659 4.443851 1.003555
f 1497 1498 1499 1500
f 1501 1504 1503 1502
f 1497 1501 1502 1498
f 1498 1502 1503 1499
f 1499 1503 1504 1500
f 1500 1504 1501 1497
v -0.297544 4.546048 1.013541
v -0.258286 4.546048 0.910785
v -0.296297 4.443851 0.896263
v -0.335555 4.443851 0.999019
v -0.416038 4.596553 0.968271
v -0.376781 4.596553 0.865515
v -0.414792 4.494356 0.850993
v -0.454049 4.494356 0.953749
f 1505 1506 1507 1508
f 1509 1512 1511 1510
f 1505 1509 1510 1506
f 1506 1510 1511 1507
f 1507 1511 1512 1508
f 1508 1512 1509 1505
v -0.423457 4.596553 0.967720
v -0.371507 4.596553 0.870760
v -0.407373 4.494356 0.851544
v -0.459323 4.494356 0.948503
v -0.535267 4.647058 0.907814
v -0.483317 4.647058 0.810854
v -0.519184 4.544861 0.791637
v -0.571134 4.544861 0.888597
f 1513 1514 1515 1516
f 1517 1520 1519 1518
f 1513 1517 1518 1514
f 1514 1518 1519 1515
f 1515 1519 1520 1516
f 1516 1520 1517 1513
v -0.542556 4.647058 0.906328
v -0.478750 4.647058 0.816725
v -0.511895 4.544861 0.793122
v -0.575701 4.544861 0.882726
v -0.645883 4.697563 0.832749
v -0.582077 4.697563 0.743146
v -0.615222 4.595366 0.719543
v -0.679028 4.595366 0.809147
f 1521 1522 1523 1524
f 1525 1528 1527 1526
f 1521 1525 1526 1522
f 1522 1526 1527 1523
f 1523 1527 1528 1524
f 1524 1528 1525 1521
v -0.652925 4.697563 0.830353
v -0.578289 4.697563 0.749548
v -0.608180 4.595366 0.721940
v -0.682816 4.595366 0.802745
v -0.746107 4.748068 0.744286
v -0.671471 4.748068 0.663481
v -0.701361 4.645871 0.635872
v -0.775997 4.645871 0.716677
f 1529 1530 1531 1532
f 1533 1536 1535 1534
f 1529 1533 1534 1530
f 1530 1534 1535 1531
f 1531 1535 1536 1532
f 1532 1536 1533 1529
v -0.752789 4.748068 0.741018
v -0.668524 4.748068 0.670311
v -0.694679 4.645871 0.639140
v -0.778944 4.645871 0.709847
v -0.834325 4.798573 0.643847
v -0.750060 4.798573 0.573140
v -0.776215 4.696376 0.541969
v -0.860480 4.696376 0.612676
f 1537 1538 1539 1540
f 1541 1544 1543 1542
f 1537 1541 1542 1538
f 1538 1542 1543 1539
f 1539 1543 1544 1540
f 1540 1544 1541 1537
v -0.840540 4.798573 0.639759
v -0.748002 4.798573 0.580288
v -0.770001 4.696376 0.546057
v -0.862539 4.696376 0.605528
v -0.909119 4.849078 0.533047
v -0.816581 4.849078 0.473577
v -0.838580 4.746881 0.439346
v -0.931118 4.746881 0.498817
f 1545 1546 1547 1548
f 1549 1552 1551 1550
f 1545 1549 1550 1546
f 1546 1550 1551 1547
f 1547 1551 1552 1548
f 1548 1552 1549 1545
v -0.914766 4.849078 0.528206
v -0.815444 4.849078 0.480928
v -0.832933 4.746881 0.444188
v -0.932255 4.746881 0.491465
v -0.969285 4.899584 0.413671
v -0.869963 4.899584 0.366394
v -0.887451 4.797386 0.329654
v -0.986773 4.797386 0.376931
f 1553 1554 1555 1556
f 1557 1560 1559 1558
f 1553 1557 1558 1554
f 1554 1558 1559 1555
f 1555 1559 1560 1556
f 1556 1560 1557 1553
v -0.974273 4.899584 0.408154
v -0.869766 4.899584 0.373830
v -0.882462 4.797386 0.335171
v -0.986970 4.797386 0.369495
v -1.013854 4.950089 0.287639
v -0.909346 4.950089 0.253316
v -0.922043 4.847891 0.214657
v -1.026551 4.847891 0.248980
f 1561 1562 1563 1564
f 1565 1568 1567 1566
f 1561 1565 1566 1562
f 1562 1566 1567 1563
f 1563 1567 1568 1564
f 1564 1568 1565 1561
v -1.018104 4.950089 0.281534
v -0.910092 4.950089 0.260717
v -0.917793 4.847891 0.220762
v -1.025805 4.847891 0.241579
v -1.042111 5.000594 0.156979
v -0.934098 5.000594 0.136161
v -0.941799 4.898396 0.096206
v -1.049811 4.898396 0.117024
f 1569 1570 1571 1572
f 1573 1576 1575 1574
f 1569 1573 1574 1570
f 1570 1574 1575 1571
f 1571 1575 1576 1572
f 1572 1576 1573 1569
v -1.045554 5.000594 0.150385
v -0.935775 5.000594 0.143408
v -0.938356 4.898396 0.102800
v -1.048134 4.898396 0.109777
v -1.053599 5.051099 0.023793
v -0.943820 5.051099 0.016816
v -0.946401 4.948901 -0.023793
v -1.056180 4.948901 -0.016816
f 1577 1578 1579 1580
f 1581 1584 1583 1582
f 1577 1581 1582 1578
f 1578 1582 1583 1579
f 1579 1583 1584 1580
f 1580 1584 1581 1577
v 1.000000 0.055000 0.055000
v 1.000000 0.055000 -0.055000
v 1.000000 -0.055000 -0.055000
v 1.000000 -0.055000 0.055000
v -1.000000 0.055000 0.055000
v -1.000000 0.055000 -0.055000
v -1.000000 -0.055000 -0.055000
v -1.000000 -0.055000 0.055000
f 1585 1586 1587 1588
f 1589 1592 1591 1590
f 1585 1589 1590 1586
f 1586 1590 1591 1587
f 1587 1591 1592 1588
f 1588 1592 1589 1585
v 0.772660 0.307525 0.637198
v 0.837880 0.307525 0.548618
v 0.837880 0.197525 0.548618
v 0.772660 0.197525 0.637198
v -0.837880 0.307525 -0.548618
v -0.772660 0.307525 -0.637198
v -0.772660 0.197525 -0.637198
v -0.837880 0.197525 -0.548618
f 1593 1594 1595 1596
f 1597 1600 1599 1598
f 1593 1597 1598 1594
f 1594 1598 1599 1595
f 1595 1599 1600 1596
f 1596 1600 1597 1593
v 0.244401 0.560051 0.971233
v 0.349440 0.560051 0.938572
v 0.349440 0.450051 0.938572
v 0.244401 0.450051 0.971233
v -0.349440 0.560051 -0.938572
v -0.244401 0.560051 -0.971233
v -0.244401 0.450051 -0.971233
v -0.349440 0.450051 -0.938572
f 1601 1602 1603 1604
f 1605 1608 1607 1606
f 1601 1605 1606 1602
f 1602 1606 1607 1603
f 1603 1607 1608 1604
f 1604 1608 1605 1601
v -0.379043 0.812576 0.927012
v -0.275093 0.812576 0.962990
v -0.275093 0.702576 0.962990
v -0.379043 0.702576 0.927012
v 0.275093 0.812576 -0.962990
v 0.379043 0.812576 -0.927012
v 0.379043 0.702576 -0.927012
v 0.275093 0.702576 -0.962990
f 1609 1610 1611 1612
f 1613 1616 1615 1614
f 1609 1613 1614 1610
f 1610 1614 1615 1611
f 1611 1615 1616 1612
f 1612 1616 1613 1609
v -0.854865 1.065101 0.521758
v -0.792488 1.065101 0.612362
v -0.792488 0.955101 0.612362
v -0.854865 0.955101 0.521758
v 0.792488 1.065101 -0.612362
v 0.854865 1.065101 -0.521758
v 0.854865 0.955101 -0.521758
v 0.792488 0.955101 -0.612362
f 1617 1618 1619 1620
f 1621 1624 1623 1622
f 1617 1621 1622 1618
f 1618 1622 1623 1619
f 1619 1623 1624 1620
f 1620 1624 1621 1617
v -0.997752 1.317626 -0.086700
v -1.001242 1.317626 0.023244
v -1.001242 1.207626 0.023244
v -0.997752 1.207626 -0.086700
v 1.001242 1.317626 -0.023244
v 0.997752 1.317626 0.086700
v 0.997752 1.207626 0.086700
v 1.001242 1.207626 -0.023244
f 1625 1626 1627 1628
f 1629 1632 1631 1630
f 1625 1629 1630 1626
f 1626 1630 1631 1627
f 1627 1631 1632 1628
f 1628 1632 1629 1625
v -0.752054 1.570152 -0.661392
v -0.820052 1.570152 -0.574926
v -0.820052 1.460152 -0.574926
v -0.752054 1.460152 -0.661392
v 0.820052 1.570152 0.574926
v 0.752054 1.570152 0.661392
v 0.752054 1.460152 0.661392
v 0.820052 1.460152 0.574926
f 1633 1634 1635 1636
f 1637 1640 1639 1638
f 1633 1637 1638 1634
f 1634 1638 1639 1635
f 1635 1639 1640 1636
f 1636 1640 1637 1633
v -0.213462 1.822677 -0.978498
v -0.319485 1.822677 -0.949186
v -0.319485 1.712677 -0.949186
v -0.213462 1.712677 -0.978498
v 0.319485 1.822677 0.949186
v 0.213462 1.822677 0.978498
v 0.213462 1.712677 0.978498
v 0.319485 1.712677 0.949186
f 1641 1642 1643 1644
f 1645 1648 1647 1646
f 1641 1645 1646 1642
f 1642 1646 1647 1643
f 1643 1647 1648 1644
f 1644 1648 1645 1641
v 0.408264 2.075202 -0.914519
v 0.305508 2.075202 -0.953777
v 0.305508 1.965202 -0.953777
v 0.408264 1.965202 -0.914519
v -0.305508 2.075202 0.953777
v -0.408264 2.075202 0.914519
v -0.408264 1.965202 0.914519
v -0.305508 1.965202 0.953777
f 1649 1650 1651 1652
f 1653 1656 1655 1654
f 1649 1653 1654 1650
f 1650 1654 1655 1651
f 1651 1655 1656 1652
f 1652 1656 1653 1649
v 0.870989 2.327727 -0.494372
v 0.811518 2.327727 -0.586910
v 0.811518 2.217727 -0.586910
v 0.870989 2.217727 -0.494372
v -0.811518 2.327727 0.586910
v -0.870989 2.327727 0.494372
v -0.870989 2.217727 0.494372
v -0.811518 2.217727 0.586910
f 1657 1658 1659 1660
f 1661 1664 1663 1662
f 1657 1661 1662 1658
f 1658 1662 1663 1659
f 1659 1663 1664 1660
f 1660 1664 1661 1657
v 0.994498 2.580253 0.118313
v 1.001475 2.580253 0.008535
v 1.001475 2.470253 0.008535
v 0.994498 2.470253 0.118313
v -1.001475 2.580253 -0.008535
v -0.994498 2.580253 -0.118313
v -0.994498 2.470253 -0.118313
v -1.001475 2.470253 -0.008535
f 1665 1666 1667 1668
f 1669 1672 1671 1670
f 1665 1669 1670 1666
f 1666 1670 1671 1667
f 1667 1671 1672 1668
f 1668 1672 1669 1665
v 0.730691 2.832778 0.684920
v 0.801398 2.832778 0.600655
v 0.801398 2.722778 0.600655
v 0.730691 2.722778 0.684920
v -0.801398 2.832778 -0.600655
v -0.730691 2.832778 -0.684920
v -0.730691 2.722778 -0.684920
v -0.801398 2.722778 -0.600655
f 1673 1674 1675 1676
f 1677 1680 1679 1678
f 1673 1677 1678 1674
f 1674 1678 1679 1675
f 1675 1679 1680 1676
f 1676 1680 1677 1673
v 0.182309 3.085303 0.984778
v 0.289209 3.085303 0.958845
v 0.289209 2.975303 0.958845
v 0.182309 2.975303 0.984778
v -0.289209 3.085303 -0.958845
v -0.182309 3.085303 -0.984778
v -0.182309 2.975303 -0.984778
v -0.289209 2.975303 -0.958845
f 1681 1682 1683 1684
f 1685 1688 1687 1686
f 1681 1685 1686 1682
f 1682 1686 1687 1683
f 1683 1687 1688 1684
f 1684 1688 1685 1681
v -0.437075 3.337828 0.901105
v -0.335616 3.337828 0.943603
v -0.335616 3.227828 0.943603
v -0.437075 3.227828 0.901105
v 0.335616 3.337828 -0.943603
v 0.437075 3.337828 -0.901105
v 0.437075 3.227828 -0.901105
v 0.335616 3.227828 -0.943603
f 1689 1690 1691 1692
f 1693 1696 1695 1694
f 1689 1693 1694 1690
f 1690 1694 1695 1691
f 1691 1695 1696 1692
f 1692 1696 1693 1689
v -0.886236 3.590354 0.466488
v -0.829731 3.590354 0.560866
v -0.829731 3.480354 0.560866
v -0.886236 3.480354 0.466488
v 0.829731 3.590354 -0.560866
v 0.886236 3.590354 -0.466488
v 0.886236 3.480354 -0.466488
v 0.829731 3.480354 -0.560866
f 1697 1698 1699 1700
f 1701 1704 1703 1702
f 1697 1701 1702 1698
f 1698 1702 1703 1699
f 1699 1703 1704 1700
f 1700 1704 1701 1697
v -0.990244 3.842879 -0.149807
v -1.000700 3.842879 -0.040305
v -1.000700 3.732879 -0.040305
v -0.990244 3.732879 -0.149807
v 1.000700 3.842879 0.040305
v 0.990244 3.842879 0.149807
v 0.990244 3.732879 0.149807
v 1.000700 3.732879 0.040305
f 1705 1706 1707 1708
f 1709 1712 1711 1710
f 1705 1709 1710 1706
f 1706 1710 1711 1707
f 1707 1711 1712 1708
f 1708 1712 1709 1705
v -0.708592 4.095404 -0.707759
v -0.781937 4.095404 -0.625779
v -0.781937 3.985404 -0.625779
v -0.708592 3.985404 -0.707759
v 0.781937 4.095404 0.625779
v 0.708592 4.095404 0.707759
v 0.708592 3.985404 0.707759
v 0.781937 3.985404 0.625779
f 1713 1714 1715 1716
f 1717 1720 1719 1718
f 1713 1717 1718 1714
f 1714 1718 1719 1715
f 1715 1719 1720 1716
f 1716 1720 1717 1713
v -0.150973 4.347929 -0.990067
v -0.258641 4.347929 -0.967538
v -0.258641 4.237929 -0.967538
v -0.150973 4.237929 -0.990067
v 0.258641 4.347929 0.967538
v 0.150973 4.347929 0.990067
v 0.150973 4.237929 0.990067
v 0.258641 4.237929 0.967538
f 1721 1722 1723 1724
f 1725 1728 1727 1726
f 1721 1725 1726 1722
f 1722 1726 1727 1723
f 1723 1727 1728 1724
f 1724 1728 1725 1721
v 0.465445 4.600455 -0.886784
v 0.365385 4.600455 -0.932480
v 0.365385 4.490455 -0.932480
v 0.465445 4.490455 -0.886784
v -0.365385 4.600455 0.932480
v -0.465445 4.600455 0.886784
v -0.465445 4.490455 0.886784
v -0.365385 4.490455 0.932480
f 1729 1730 1731 1732
f 1733 1736 1735 1734
f 1729 1733 1734 1730
f 1730 1734 1735 1731
f 1731 1735 1736 1732
f 1732 1736 1733 1729
v 0.900590 4.852980 -0.438135
v 0.847109 4.852980 -0.534258
v 0.847109 4.742980 -0.534258
v 0.900590 4.742980 -0.438135
v -0.847109 4.852980 0.534258
v -0.900590 4.852980 0.438135
v -0.900590 4.742980 0.438135
v -0.847109 4.742980 0.534258
f 1737 1738 1739 1740
f 1741 1744 1743 1742
f 1737 1741 1742 1738
f 1738 1742 1743 1739
f 1739 1743 1744 1740
f 1740 1744 1741 1737
